#N canvas 268 177 556 463 10;
#X obj 114 73 inlet;
#X obj 114 251 outlet;
#X msg 114 95 bang;
#X obj 141 160 + 1;
#X obj 171 73 inlet;
#X msg 171 94 reset;
#X obj 114 160 f;
#X floatatom 141 227 5 0 0 0 - - -, f 5;
#X msg 171 116 -1;
#X obj 141 206 mod \$1;
#X connect 0 0 2 0;
#X connect 2 0 6 0;
#X connect 3 0 6 1;
#X connect 3 0 9 0;
#X connect 4 0 5 0;
#X connect 5 0 8 0;
#X connect 6 0 3 0;
#X connect 7 0 1 0;
#X connect 8 0 6 0;
#X connect 9 0 7 0;
