#N canvas 0 50 775 300 8;
#X obj 34 148 bng 15 250 50 0 empty empty empty 17 7 0 10 -262144 -1
-1;
#X msg 34 175 30 30 0 50 200 1000;
#X msg 144 175 200 30 0 50 200 1000;
#X obj 144 148 bng 15 250 50 0 empty empty empty 17 7 0 10 -262144
-1 -1;
#X text 56 155 YELLOW;
#X text 166 155 SERMON PINK;
#X msg 390 173 0 0 30 255 200 1000;
#X text 417 153 PURPLE;
#X obj 390 146 bng 15 250 50 0 empty empty empty 17 7 0 10 -262144
-1 -1;
#X obj 619 145 bng 15 250 50 0 empty empty empty 17 7 0 10 -262144
-1 -1;
#X obj 258 146 bng 15 250 50 0 empty empty empty 17 7 0 10 -262144
-1 -1;
#X text 286 152 AKA MURASAKI;
#X obj 497 144 bng 15 250 50 0 empty empty empty 17 7 0 10 -262144
-1 -1;
#X text 525 150 GREEN;
#X msg 497 173 0 255 100 255 20 1000;
#X obj 34 121 sel 0 1 2 3 4 5, f 62;
#X obj 34 102 counter 0 0 6;
#X obj 34 83 metro 2000;
#X obj 34 62 tgl 15 0 empty empty empty 17 7 0 10 -262144 -1 -1 0 1
;
#X msg 258 175 200 0 255 80 100 1000;
#X obj 179 29 inlet;
#X obj 219 29 inlet;
#X obj 259 29 inlet;
#X obj 299 29 inlet;
#X obj 339 29 inlet;
#X obj 379 29 inlet;
#X obj 174 59 del 200;
#X obj 224 59 del 200;
#X obj 274 59 del 200;
#X obj 324 59 del 200;
#X obj 374 59 del 200;
#X obj 424 59 del 200;
#X obj 74 237 osc-send-d 192.168.11.101 40000 /hue;
#X obj 619 85 bng 15 250 50 0 empty empty empty 17 7 0 10 -262144 -1
-1;
#X text 646 92 KIMIDORI;
#X msg 619 112 0 255 0 255 50 1000;
#X text 646 152 WHITE;
#X msg 619 172 50 255 200 255 10 1000;
#X connect 0 0 1 0;
#X connect 1 0 32 0;
#X connect 2 0 32 0;
#X connect 3 0 2 0;
#X connect 6 0 32 0;
#X connect 8 0 6 0;
#X connect 9 0 37 0;
#X connect 10 0 19 0;
#X connect 12 0 14 0;
#X connect 14 0 32 0;
#X connect 15 0 0 0;
#X connect 15 1 3 0;
#X connect 15 2 10 0;
#X connect 15 3 8 0;
#X connect 15 4 12 0;
#X connect 15 5 9 0;
#X connect 16 0 15 0;
#X connect 17 0 16 0;
#X connect 18 0 17 0;
#X connect 19 0 32 0;
#X connect 20 0 26 0;
#X connect 21 0 27 0;
#X connect 22 0 28 0;
#X connect 23 0 29 0;
#X connect 24 0 30 0;
#X connect 25 0 31 0;
#X connect 26 0 0 0;
#X connect 27 0 3 0;
#X connect 28 0 10 0;
#X connect 29 0 8 0;
#X connect 30 0 12 0;
#X connect 31 0 9 0;
#X connect 33 0 35 0;
#X connect 37 0 32 0;
