#N canvas 67 53 892 340 10;
#X obj 102 47 cnv 15 80 40 empty empty key_input 4 14 0 10 -18012 -262144
0;
#X msg 31 218 24;
#N canvas 176 33 584 412 snd_A 0;
#X obj 77 80 mtof;
#X floatatom 77 103 5 0 0 0 - - -, f 5;
#X floatatom 101 162 5 0 0 0 - - -, f 5;
#X obj 101 229 *~;
#X obj 77 259 +~;
#X obj 101 139 * 2;
#X obj 258 306 line~;
#X obj 77 327 *~;
#X obj 136 205 line~;
#X obj 258 154 bng 15 250 50 0 empty empty empty 17 7 0 10 -262144
-1 -1;
#X obj 77 13 inlet;
#X obj 77 55 +;
#X obj 115 44 * 12;
#X obj 77 299 osc~;
#X obj 101 204 osc~;
#X obj 226 125 pack f f f f;
#X msg 155 183 \$2 \, \$3 \$4;
#X msg 308 273 0 743.009;
#X obj 418 95 pack 0 f;
#X obj 418 71 bng 15 250 50 0 empty empty empty 17 7 0 10 -262144 -1
-1;
#X obj 328 84 /;
#X floatatom 328 106 5 0 0 0 - - -, f 5;
#X obj 317 62 bng 15 250 50 0 empty empty empty 17 7 0 10 -262144 -1
-1;
#X obj 115 23 r Oct_A;
#X obj 207 35 r para1_A;
#X obj 277 35 r para2_A;
#X obj 347 35 r para3_A;
#X obj 463 36 r Release_A;
#X obj 77 362 throw~ out_A;
#X msg 259 273 0.25 1;
#X obj 419 14 inlet;
#X obj 309 181 bng 15 250 50 0 empty empty empty 17 7 0 10 -262144
-1 -1;
#X obj 418 121 list prepend;
#X obj 418 145 list trim;
#X connect 0 0 1 0;
#X connect 0 0 9 0;
#X connect 1 0 4 0;
#X connect 1 0 5 0;
#X connect 2 0 14 0;
#X connect 3 0 4 1;
#X connect 4 0 13 0;
#X connect 5 0 2 0;
#X connect 6 0 7 1;
#X connect 7 0 28 0;
#X connect 8 0 3 1;
#X connect 9 0 15 0;
#X connect 9 0 29 0;
#X connect 10 0 11 0;
#X connect 11 0 0 0;
#X connect 12 0 11 1;
#X connect 13 0 7 0;
#X connect 14 0 3 0;
#X connect 15 0 16 0;
#X connect 16 0 8 0;
#X connect 17 0 6 0;
#X connect 18 0 32 0;
#X connect 19 0 18 0;
#X connect 20 0 21 0;
#X connect 21 0 15 3;
#X connect 22 0 20 0;
#X connect 23 0 12 0;
#X connect 24 0 15 1;
#X connect 25 0 15 2;
#X connect 26 0 20 1;
#X connect 26 0 22 0;
#X connect 27 0 18 1;
#X connect 27 0 19 0;
#X connect 27 0 20 0;
#X connect 29 0 6 0;
#X connect 30 0 31 0;
#X connect 31 0 17 0;
#X connect 32 0 33 0;
#X connect 33 0 17 0;
#X restore 31 242 pd snd_A;
#X obj 31 187 keypress 122;
#N canvas 176 33 584 412 snd_A 0;
#X obj 77 80 mtof;
#X floatatom 77 103 5 0 0 0 - - -, f 5;
#X floatatom 101 162 5 0 0 0 - - -, f 5;
#X obj 101 229 *~;
#X obj 77 259 +~;
#X obj 101 139 * 2;
#X obj 258 306 line~;
#X obj 77 327 *~;
#X obj 136 205 line~;
#X obj 258 154 bng 15 250 50 0 empty empty empty 17 7 0 10 -262144
-1 -1;
#X obj 77 13 inlet;
#X obj 77 55 +;
#X obj 115 44 * 12;
#X obj 77 299 osc~;
#X obj 101 204 osc~;
#X obj 226 125 pack f f f f;
#X msg 155 183 \$2 \, \$3 \$4;
#X msg 308 273 0 743.009;
#X obj 418 95 pack 0 f;
#X obj 418 71 bng 15 250 50 0 empty empty empty 17 7 0 10 -262144 -1
-1;
#X obj 328 84 /;
#X floatatom 328 106 5 0 0 0 - - -, f 5;
#X obj 317 62 bng 15 250 50 0 empty empty empty 17 7 0 10 -262144 -1
-1;
#X obj 115 23 r Oct_A;
#X obj 207 35 r para1_A;
#X obj 277 35 r para2_A;
#X obj 347 35 r para3_A;
#X obj 463 36 r Release_A;
#X obj 77 362 throw~ out_A;
#X msg 259 273 0.25 1;
#X obj 419 14 inlet;
#X obj 309 181 bng 15 250 50 0 empty empty empty 17 7 0 10 -262144
-1 -1;
#X obj 418 121 list prepend;
#X obj 418 145 list trim;
#X connect 0 0 1 0;
#X connect 0 0 9 0;
#X connect 1 0 4 0;
#X connect 1 0 5 0;
#X connect 2 0 14 0;
#X connect 3 0 4 1;
#X connect 4 0 13 0;
#X connect 5 0 2 0;
#X connect 6 0 7 1;
#X connect 7 0 28 0;
#X connect 8 0 3 1;
#X connect 9 0 15 0;
#X connect 9 0 29 0;
#X connect 10 0 11 0;
#X connect 11 0 0 0;
#X connect 12 0 11 1;
#X connect 13 0 7 0;
#X connect 14 0 3 0;
#X connect 15 0 16 0;
#X connect 16 0 8 0;
#X connect 17 0 6 0;
#X connect 18 0 32 0;
#X connect 19 0 18 0;
#X connect 20 0 21 0;
#X connect 21 0 15 3;
#X connect 22 0 20 0;
#X connect 23 0 12 0;
#X connect 24 0 15 1;
#X connect 25 0 15 2;
#X connect 26 0 20 1;
#X connect 26 0 22 0;
#X connect 27 0 18 1;
#X connect 27 0 19 0;
#X connect 27 0 20 0;
#X connect 29 0 6 0;
#X connect 30 0 31 0;
#X connect 31 0 17 0;
#X connect 32 0 33 0;
#X connect 33 0 17 0;
#X restore 111 242 pd snd_A;
#X msg 111 218 26;
#X obj 111 187 keypress 120;
#N canvas 176 33 584 412 snd_A 0;
#X obj 77 80 mtof;
#X floatatom 77 103 5 0 0 0 - - -, f 5;
#X floatatom 101 162 5 0 0 0 - - -, f 5;
#X obj 101 229 *~;
#X obj 77 259 +~;
#X obj 101 139 * 2;
#X obj 258 306 line~;
#X obj 77 327 *~;
#X obj 136 205 line~;
#X obj 258 154 bng 15 250 50 0 empty empty empty 17 7 0 10 -262144
-1 -1;
#X obj 77 13 inlet;
#X obj 77 55 +;
#X obj 115 44 * 12;
#X obj 77 299 osc~;
#X obj 101 204 osc~;
#X obj 226 125 pack f f f f;
#X msg 155 183 \$2 \, \$3 \$4;
#X msg 308 273 0 743.009;
#X obj 418 95 pack 0 f;
#X obj 418 71 bng 15 250 50 0 empty empty empty 17 7 0 10 -262144 -1
-1;
#X obj 328 84 /;
#X floatatom 328 106 5 0 0 0 - - -, f 5;
#X obj 317 62 bng 15 250 50 0 empty empty empty 17 7 0 10 -262144 -1
-1;
#X obj 115 23 r Oct_A;
#X obj 207 35 r para1_A;
#X obj 277 35 r para2_A;
#X obj 347 35 r para3_A;
#X obj 463 36 r Release_A;
#X obj 77 362 throw~ out_A;
#X msg 259 273 0.25 1;
#X obj 419 14 inlet;
#X obj 309 181 bng 15 250 50 0 empty empty empty 17 7 0 10 -262144
-1 -1;
#X obj 418 121 list prepend;
#X obj 418 145 list trim;
#X connect 0 0 1 0;
#X connect 0 0 9 0;
#X connect 1 0 4 0;
#X connect 1 0 5 0;
#X connect 2 0 14 0;
#X connect 3 0 4 1;
#X connect 4 0 13 0;
#X connect 5 0 2 0;
#X connect 6 0 7 1;
#X connect 7 0 28 0;
#X connect 8 0 3 1;
#X connect 9 0 15 0;
#X connect 9 0 29 0;
#X connect 10 0 11 0;
#X connect 11 0 0 0;
#X connect 12 0 11 1;
#X connect 13 0 7 0;
#X connect 14 0 3 0;
#X connect 15 0 16 0;
#X connect 16 0 8 0;
#X connect 17 0 6 0;
#X connect 18 0 32 0;
#X connect 19 0 18 0;
#X connect 20 0 21 0;
#X connect 21 0 15 3;
#X connect 22 0 20 0;
#X connect 23 0 12 0;
#X connect 24 0 15 1;
#X connect 25 0 15 2;
#X connect 26 0 20 1;
#X connect 26 0 22 0;
#X connect 27 0 18 1;
#X connect 27 0 19 0;
#X connect 27 0 20 0;
#X connect 29 0 6 0;
#X connect 30 0 31 0;
#X connect 31 0 17 0;
#X connect 32 0 33 0;
#X connect 33 0 17 0;
#X restore 191 242 pd snd_A;
#X obj 191 187 keypress 99;
#X msg 191 218 28;
#N canvas 176 33 584 412 snd_A 0;
#X obj 77 80 mtof;
#X floatatom 77 103 5 0 0 0 - - -, f 5;
#X floatatom 101 162 5 0 0 0 - - -, f 5;
#X obj 101 229 *~;
#X obj 77 259 +~;
#X obj 101 139 * 2;
#X obj 258 306 line~;
#X obj 77 327 *~;
#X obj 136 205 line~;
#X obj 258 154 bng 15 250 50 0 empty empty empty 17 7 0 10 -262144
-1 -1;
#X obj 77 13 inlet;
#X obj 77 55 +;
#X obj 115 44 * 12;
#X obj 77 299 osc~;
#X obj 101 204 osc~;
#X obj 226 125 pack f f f f;
#X msg 155 183 \$2 \, \$3 \$4;
#X msg 308 273 0 743.009;
#X obj 418 95 pack 0 f;
#X obj 418 71 bng 15 250 50 0 empty empty empty 17 7 0 10 -262144 -1
-1;
#X obj 328 84 /;
#X floatatom 328 106 5 0 0 0 - - -, f 5;
#X obj 317 62 bng 15 250 50 0 empty empty empty 17 7 0 10 -262144 -1
-1;
#X obj 115 23 r Oct_A;
#X obj 207 35 r para1_A;
#X obj 277 35 r para2_A;
#X obj 347 35 r para3_A;
#X obj 463 36 r Release_A;
#X obj 77 362 throw~ out_A;
#X msg 259 273 0.25 1;
#X obj 419 14 inlet;
#X obj 309 181 bng 15 250 50 0 empty empty empty 17 7 0 10 -262144
-1 -1;
#X obj 418 121 list prepend;
#X obj 418 145 list trim;
#X connect 0 0 1 0;
#X connect 0 0 9 0;
#X connect 1 0 4 0;
#X connect 1 0 5 0;
#X connect 2 0 14 0;
#X connect 3 0 4 1;
#X connect 4 0 13 0;
#X connect 5 0 2 0;
#X connect 6 0 7 1;
#X connect 7 0 28 0;
#X connect 8 0 3 1;
#X connect 9 0 15 0;
#X connect 9 0 29 0;
#X connect 10 0 11 0;
#X connect 11 0 0 0;
#X connect 12 0 11 1;
#X connect 13 0 7 0;
#X connect 14 0 3 0;
#X connect 15 0 16 0;
#X connect 16 0 8 0;
#X connect 17 0 6 0;
#X connect 18 0 32 0;
#X connect 19 0 18 0;
#X connect 20 0 21 0;
#X connect 21 0 15 3;
#X connect 22 0 20 0;
#X connect 23 0 12 0;
#X connect 24 0 15 1;
#X connect 25 0 15 2;
#X connect 26 0 20 1;
#X connect 26 0 22 0;
#X connect 27 0 18 1;
#X connect 27 0 19 0;
#X connect 27 0 20 0;
#X connect 29 0 6 0;
#X connect 30 0 31 0;
#X connect 31 0 17 0;
#X connect 32 0 33 0;
#X connect 33 0 17 0;
#X restore 265 242 pd snd_A;
#X obj 265 187 keypress 118;
#X msg 265 218 29;
#N canvas 176 33 584 412 snd_A 0;
#X obj 77 80 mtof;
#X floatatom 77 103 5 0 0 0 - - -, f 5;
#X floatatom 101 162 5 0 0 0 - - -, f 5;
#X obj 101 229 *~;
#X obj 77 259 +~;
#X obj 101 139 * 2;
#X obj 258 306 line~;
#X obj 77 327 *~;
#X obj 136 205 line~;
#X obj 258 154 bng 15 250 50 0 empty empty empty 17 7 0 10 -262144
-1 -1;
#X obj 77 13 inlet;
#X obj 77 55 +;
#X obj 115 44 * 12;
#X obj 77 299 osc~;
#X obj 101 204 osc~;
#X obj 226 125 pack f f f f;
#X msg 155 183 \$2 \, \$3 \$4;
#X msg 308 273 0 743.009;
#X obj 418 95 pack 0 f;
#X obj 418 71 bng 15 250 50 0 empty empty empty 17 7 0 10 -262144 -1
-1;
#X obj 328 84 /;
#X floatatom 328 106 5 0 0 0 - - -, f 5;
#X obj 317 62 bng 15 250 50 0 empty empty empty 17 7 0 10 -262144 -1
-1;
#X obj 115 23 r Oct_A;
#X obj 207 35 r para1_A;
#X obj 277 35 r para2_A;
#X obj 347 35 r para3_A;
#X obj 463 36 r Release_A;
#X obj 77 362 throw~ out_A;
#X msg 259 273 0.25 1;
#X obj 419 14 inlet;
#X obj 309 181 bng 15 250 50 0 empty empty empty 17 7 0 10 -262144
-1 -1;
#X obj 418 121 list prepend;
#X obj 418 145 list trim;
#X connect 0 0 1 0;
#X connect 0 0 9 0;
#X connect 1 0 4 0;
#X connect 1 0 5 0;
#X connect 2 0 14 0;
#X connect 3 0 4 1;
#X connect 4 0 13 0;
#X connect 5 0 2 0;
#X connect 6 0 7 1;
#X connect 7 0 28 0;
#X connect 8 0 3 1;
#X connect 9 0 15 0;
#X connect 9 0 29 0;
#X connect 10 0 11 0;
#X connect 11 0 0 0;
#X connect 12 0 11 1;
#X connect 13 0 7 0;
#X connect 14 0 3 0;
#X connect 15 0 16 0;
#X connect 16 0 8 0;
#X connect 17 0 6 0;
#X connect 18 0 32 0;
#X connect 19 0 18 0;
#X connect 20 0 21 0;
#X connect 21 0 15 3;
#X connect 22 0 20 0;
#X connect 23 0 12 0;
#X connect 24 0 15 1;
#X connect 25 0 15 2;
#X connect 26 0 20 1;
#X connect 26 0 22 0;
#X connect 27 0 18 1;
#X connect 27 0 19 0;
#X connect 27 0 20 0;
#X connect 29 0 6 0;
#X connect 30 0 31 0;
#X connect 31 0 17 0;
#X connect 32 0 33 0;
#X connect 33 0 17 0;
#X restore 345 242 pd snd_A;
#X obj 345 187 keypress 98;
#X msg 345 218 31;
#N canvas 176 33 584 412 snd_A 0;
#X obj 77 80 mtof;
#X floatatom 77 103 5 0 0 0 - - -, f 5;
#X floatatom 101 162 5 0 0 0 - - -, f 5;
#X obj 101 229 *~;
#X obj 77 259 +~;
#X obj 101 139 * 2;
#X obj 258 306 line~;
#X obj 77 327 *~;
#X obj 136 205 line~;
#X obj 258 154 bng 15 250 50 0 empty empty empty 17 7 0 10 -262144
-1 -1;
#X obj 77 13 inlet;
#X obj 77 55 +;
#X obj 115 44 * 12;
#X obj 77 299 osc~;
#X obj 101 204 osc~;
#X obj 226 125 pack f f f f;
#X msg 155 183 \$2 \, \$3 \$4;
#X msg 308 273 0 743.009;
#X obj 418 95 pack 0 f;
#X obj 418 71 bng 15 250 50 0 empty empty empty 17 7 0 10 -262144 -1
-1;
#X obj 328 84 /;
#X floatatom 328 106 5 0 0 0 - - -, f 5;
#X obj 317 62 bng 15 250 50 0 empty empty empty 17 7 0 10 -262144 -1
-1;
#X obj 115 23 r Oct_A;
#X obj 207 35 r para1_A;
#X obj 277 35 r para2_A;
#X obj 347 35 r para3_A;
#X obj 463 36 r Release_A;
#X obj 77 362 throw~ out_A;
#X msg 259 273 0.25 1;
#X obj 419 14 inlet;
#X obj 309 181 bng 15 250 50 0 empty empty empty 17 7 0 10 -262144
-1 -1;
#X obj 418 121 list prepend;
#X obj 418 145 list trim;
#X connect 0 0 1 0;
#X connect 0 0 9 0;
#X connect 1 0 4 0;
#X connect 1 0 5 0;
#X connect 2 0 14 0;
#X connect 3 0 4 1;
#X connect 4 0 13 0;
#X connect 5 0 2 0;
#X connect 6 0 7 1;
#X connect 7 0 28 0;
#X connect 8 0 3 1;
#X connect 9 0 15 0;
#X connect 9 0 29 0;
#X connect 10 0 11 0;
#X connect 11 0 0 0;
#X connect 12 0 11 1;
#X connect 13 0 7 0;
#X connect 14 0 3 0;
#X connect 15 0 16 0;
#X connect 16 0 8 0;
#X connect 17 0 6 0;
#X connect 18 0 32 0;
#X connect 19 0 18 0;
#X connect 20 0 21 0;
#X connect 21 0 15 3;
#X connect 22 0 20 0;
#X connect 23 0 12 0;
#X connect 24 0 15 1;
#X connect 25 0 15 2;
#X connect 26 0 20 1;
#X connect 26 0 22 0;
#X connect 27 0 18 1;
#X connect 27 0 19 0;
#X connect 27 0 20 0;
#X connect 29 0 6 0;
#X connect 30 0 31 0;
#X connect 31 0 17 0;
#X connect 32 0 33 0;
#X connect 33 0 17 0;
#X restore 420 242 pd snd_A;
#X obj 420 187 keypress 110;
#X msg 420 218 33;
#N canvas 176 33 584 412 snd_A 0;
#X obj 77 80 mtof;
#X floatatom 77 103 5 0 0 0 - - -, f 5;
#X floatatom 101 162 5 0 0 0 - - -, f 5;
#X obj 101 229 *~;
#X obj 77 259 +~;
#X obj 101 139 * 2;
#X obj 258 306 line~;
#X obj 77 327 *~;
#X obj 136 205 line~;
#X obj 258 154 bng 15 250 50 0 empty empty empty 17 7 0 10 -262144
-1 -1;
#X obj 77 13 inlet;
#X obj 77 55 +;
#X obj 115 44 * 12;
#X obj 77 299 osc~;
#X obj 101 204 osc~;
#X obj 226 125 pack f f f f;
#X msg 155 183 \$2 \, \$3 \$4;
#X msg 308 273 0 743.009;
#X obj 418 95 pack 0 f;
#X obj 418 71 bng 15 250 50 0 empty empty empty 17 7 0 10 -262144 -1
-1;
#X obj 328 84 /;
#X floatatom 328 106 5 0 0 0 - - -, f 5;
#X obj 317 62 bng 15 250 50 0 empty empty empty 17 7 0 10 -262144 -1
-1;
#X obj 115 23 r Oct_A;
#X obj 207 35 r para1_A;
#X obj 277 35 r para2_A;
#X obj 347 35 r para3_A;
#X obj 463 36 r Release_A;
#X obj 77 362 throw~ out_A;
#X msg 259 273 0.25 1;
#X obj 419 14 inlet;
#X obj 309 181 bng 15 250 50 0 empty empty empty 17 7 0 10 -262144
-1 -1;
#X obj 418 121 list prepend;
#X obj 418 145 list trim;
#X connect 0 0 1 0;
#X connect 0 0 9 0;
#X connect 1 0 4 0;
#X connect 1 0 5 0;
#X connect 2 0 14 0;
#X connect 3 0 4 1;
#X connect 4 0 13 0;
#X connect 5 0 2 0;
#X connect 6 0 7 1;
#X connect 7 0 28 0;
#X connect 8 0 3 1;
#X connect 9 0 15 0;
#X connect 9 0 29 0;
#X connect 10 0 11 0;
#X connect 11 0 0 0;
#X connect 12 0 11 1;
#X connect 13 0 7 0;
#X connect 14 0 3 0;
#X connect 15 0 16 0;
#X connect 16 0 8 0;
#X connect 17 0 6 0;
#X connect 18 0 32 0;
#X connect 19 0 18 0;
#X connect 20 0 21 0;
#X connect 21 0 15 3;
#X connect 22 0 20 0;
#X connect 23 0 12 0;
#X connect 24 0 15 1;
#X connect 25 0 15 2;
#X connect 26 0 20 1;
#X connect 26 0 22 0;
#X connect 27 0 18 1;
#X connect 27 0 19 0;
#X connect 27 0 20 0;
#X connect 29 0 6 0;
#X connect 30 0 31 0;
#X connect 31 0 17 0;
#X connect 32 0 33 0;
#X connect 33 0 17 0;
#X restore 500 242 pd snd_A;
#X obj 500 187 keypress 109;
#X msg 500 218 35;
#N canvas 176 33 584 412 snd_A 0;
#X obj 77 80 mtof;
#X floatatom 77 103 5 0 0 0 - - -, f 5;
#X floatatom 101 162 5 0 0 0 - - -, f 5;
#X obj 101 229 *~;
#X obj 77 259 +~;
#X obj 101 139 * 2;
#X obj 258 306 line~;
#X obj 77 327 *~;
#X obj 136 205 line~;
#X obj 258 154 bng 15 250 50 0 empty empty empty 17 7 0 10 -262144
-1 -1;
#X obj 77 13 inlet;
#X obj 77 55 +;
#X obj 115 44 * 12;
#X obj 77 299 osc~;
#X obj 101 204 osc~;
#X obj 226 125 pack f f f f;
#X msg 155 183 \$2 \, \$3 \$4;
#X msg 308 273 0 743.009;
#X obj 418 95 pack 0 f;
#X obj 418 71 bng 15 250 50 0 empty empty empty 17 7 0 10 -262144 -1
-1;
#X obj 328 84 /;
#X floatatom 328 106 5 0 0 0 - - -, f 5;
#X obj 317 62 bng 15 250 50 0 empty empty empty 17 7 0 10 -262144 -1
-1;
#X obj 115 23 r Oct_A;
#X obj 207 35 r para1_A;
#X obj 277 35 r para2_A;
#X obj 347 35 r para3_A;
#X obj 463 36 r Release_A;
#X obj 77 362 throw~ out_A;
#X msg 259 273 0.25 1;
#X obj 419 14 inlet;
#X obj 309 181 bng 15 250 50 0 empty empty empty 17 7 0 10 -262144
-1 -1;
#X obj 418 121 list prepend;
#X obj 418 145 list trim;
#X connect 0 0 1 0;
#X connect 0 0 9 0;
#X connect 1 0 4 0;
#X connect 1 0 5 0;
#X connect 2 0 14 0;
#X connect 3 0 4 1;
#X connect 4 0 13 0;
#X connect 5 0 2 0;
#X connect 6 0 7 1;
#X connect 7 0 28 0;
#X connect 8 0 3 1;
#X connect 9 0 15 0;
#X connect 9 0 29 0;
#X connect 10 0 11 0;
#X connect 11 0 0 0;
#X connect 12 0 11 1;
#X connect 13 0 7 0;
#X connect 14 0 3 0;
#X connect 15 0 16 0;
#X connect 16 0 8 0;
#X connect 17 0 6 0;
#X connect 18 0 32 0;
#X connect 19 0 18 0;
#X connect 20 0 21 0;
#X connect 21 0 15 3;
#X connect 22 0 20 0;
#X connect 23 0 12 0;
#X connect 24 0 15 1;
#X connect 25 0 15 2;
#X connect 26 0 20 1;
#X connect 26 0 22 0;
#X connect 27 0 18 1;
#X connect 27 0 19 0;
#X connect 27 0 20 0;
#X connect 29 0 6 0;
#X connect 30 0 31 0;
#X connect 31 0 17 0;
#X connect 32 0 33 0;
#X connect 33 0 17 0;
#X restore 580 242 pd snd_A;
#X obj 580 187 keypress 44;
#X msg 580 218 36;
#N canvas 176 33 584 412 snd_A 0;
#X obj 77 80 mtof;
#X floatatom 77 103 5 0 0 0 - - -, f 5;
#X floatatom 101 162 5 0 0 0 - - -, f 5;
#X obj 101 229 *~;
#X obj 77 259 +~;
#X obj 101 139 * 2;
#X obj 258 306 line~;
#X obj 77 327 *~;
#X obj 136 205 line~;
#X obj 258 154 bng 15 250 50 0 empty empty empty 17 7 0 10 -262144
-1 -1;
#X obj 77 13 inlet;
#X obj 77 55 +;
#X obj 115 44 * 12;
#X obj 77 299 osc~;
#X obj 101 204 osc~;
#X obj 226 125 pack f f f f;
#X msg 155 183 \$2 \, \$3 \$4;
#X msg 308 273 0 743.009;
#X obj 418 95 pack 0 f;
#X obj 418 71 bng 15 250 50 0 empty empty empty 17 7 0 10 -262144 -1
-1;
#X obj 328 84 /;
#X floatatom 328 106 5 0 0 0 - - -, f 5;
#X obj 317 62 bng 15 250 50 0 empty empty empty 17 7 0 10 -262144 -1
-1;
#X obj 115 23 r Oct_A;
#X obj 207 35 r para1_A;
#X obj 277 35 r para2_A;
#X obj 347 35 r para3_A;
#X obj 463 36 r Release_A;
#X obj 77 362 throw~ out_A;
#X msg 259 273 0.25 1;
#X obj 419 14 inlet;
#X obj 309 181 bng 15 250 50 0 empty empty empty 17 7 0 10 -262144
-1 -1;
#X obj 418 121 list prepend;
#X obj 418 145 list trim;
#X connect 0 0 1 0;
#X connect 0 0 9 0;
#X connect 1 0 4 0;
#X connect 1 0 5 0;
#X connect 2 0 14 0;
#X connect 3 0 4 1;
#X connect 4 0 13 0;
#X connect 5 0 2 0;
#X connect 6 0 7 1;
#X connect 7 0 28 0;
#X connect 8 0 3 1;
#X connect 9 0 15 0;
#X connect 9 0 29 0;
#X connect 10 0 11 0;
#X connect 11 0 0 0;
#X connect 12 0 11 1;
#X connect 13 0 7 0;
#X connect 14 0 3 0;
#X connect 15 0 16 0;
#X connect 16 0 8 0;
#X connect 17 0 6 0;
#X connect 18 0 32 0;
#X connect 19 0 18 0;
#X connect 20 0 21 0;
#X connect 21 0 15 3;
#X connect 22 0 20 0;
#X connect 23 0 12 0;
#X connect 24 0 15 1;
#X connect 25 0 15 2;
#X connect 26 0 20 1;
#X connect 26 0 22 0;
#X connect 27 0 18 1;
#X connect 27 0 19 0;
#X connect 27 0 20 0;
#X connect 29 0 6 0;
#X connect 30 0 31 0;
#X connect 31 0 17 0;
#X connect 32 0 33 0;
#X connect 33 0 17 0;
#X restore 655 242 pd snd_A;
#X obj 655 187 keypress 46;
#X msg 655 218 38;
#N canvas 176 33 584 412 snd_A 0;
#X obj 77 80 mtof;
#X floatatom 77 103 5 0 0 0 - - -, f 5;
#X floatatom 101 162 5 0 0 0 - - -, f 5;
#X obj 101 229 *~;
#X obj 77 259 +~;
#X obj 101 139 * 2;
#X obj 258 306 line~;
#X obj 77 327 *~;
#X obj 136 205 line~;
#X obj 258 154 bng 15 250 50 0 empty empty empty 17 7 0 10 -262144
-1 -1;
#X obj 77 13 inlet;
#X obj 77 55 +;
#X obj 115 44 * 12;
#X obj 77 299 osc~;
#X obj 101 204 osc~;
#X obj 226 125 pack f f f f;
#X msg 155 183 \$2 \, \$3 \$4;
#X msg 308 273 0 743.009;
#X obj 418 95 pack 0 f;
#X obj 418 71 bng 15 250 50 0 empty empty empty 17 7 0 10 -262144 -1
-1;
#X obj 328 84 /;
#X floatatom 328 106 5 0 0 0 - - -, f 5;
#X obj 317 62 bng 15 250 50 0 empty empty empty 17 7 0 10 -262144 -1
-1;
#X obj 115 23 r Oct_A;
#X obj 207 35 r para1_A;
#X obj 277 35 r para2_A;
#X obj 347 35 r para3_A;
#X obj 463 36 r Release_A;
#X obj 77 362 throw~ out_A;
#X msg 259 273 0.25 1;
#X obj 419 14 inlet;
#X obj 309 181 bng 15 250 50 0 empty empty empty 17 7 0 10 -262144
-1 -1;
#X obj 418 121 list prepend;
#X obj 418 145 list trim;
#X connect 0 0 1 0;
#X connect 0 0 9 0;
#X connect 1 0 4 0;
#X connect 1 0 5 0;
#X connect 2 0 14 0;
#X connect 3 0 4 1;
#X connect 4 0 13 0;
#X connect 5 0 2 0;
#X connect 6 0 7 1;
#X connect 7 0 28 0;
#X connect 8 0 3 1;
#X connect 9 0 15 0;
#X connect 9 0 29 0;
#X connect 10 0 11 0;
#X connect 11 0 0 0;
#X connect 12 0 11 1;
#X connect 13 0 7 0;
#X connect 14 0 3 0;
#X connect 15 0 16 0;
#X connect 16 0 8 0;
#X connect 17 0 6 0;
#X connect 18 0 32 0;
#X connect 19 0 18 0;
#X connect 20 0 21 0;
#X connect 21 0 15 3;
#X connect 22 0 20 0;
#X connect 23 0 12 0;
#X connect 24 0 15 1;
#X connect 25 0 15 2;
#X connect 26 0 20 1;
#X connect 26 0 22 0;
#X connect 27 0 18 1;
#X connect 27 0 19 0;
#X connect 27 0 20 0;
#X connect 29 0 6 0;
#X connect 30 0 31 0;
#X connect 31 0 17 0;
#X connect 32 0 33 0;
#X connect 33 0 17 0;
#X restore 730 242 pd snd_A;
#X obj 730 187 keypress 47;
#X msg 730 218 40;
#N canvas 176 33 584 412 snd_A 0;
#X obj 77 80 mtof;
#X floatatom 77 103 5 0 0 0 - - -, f 5;
#X floatatom 101 162 5 0 0 0 - - -, f 5;
#X obj 101 229 *~;
#X obj 77 259 +~;
#X obj 101 139 * 2;
#X obj 258 306 line~;
#X obj 77 327 *~;
#X obj 136 205 line~;
#X obj 258 154 bng 15 250 50 0 empty empty empty 17 7 0 10 -262144
-1 -1;
#X obj 77 13 inlet;
#X obj 77 55 +;
#X obj 115 44 * 12;
#X obj 77 299 osc~;
#X obj 101 204 osc~;
#X obj 226 125 pack f f f f;
#X msg 155 183 \$2 \, \$3 \$4;
#X msg 308 273 0 743.009;
#X obj 418 95 pack 0 f;
#X obj 418 71 bng 15 250 50 0 empty empty empty 17 7 0 10 -262144 -1
-1;
#X obj 328 84 /;
#X floatatom 328 106 5 0 0 0 - - -, f 5;
#X obj 317 62 bng 15 250 50 0 empty empty empty 17 7 0 10 -262144 -1
-1;
#X obj 115 23 r Oct_A;
#X obj 207 35 r para1_A;
#X obj 277 35 r para2_A;
#X obj 347 35 r para3_A;
#X obj 463 36 r Release_A;
#X obj 77 362 throw~ out_A;
#X msg 259 273 0.25 1;
#X obj 419 14 inlet;
#X obj 309 181 bng 15 250 50 0 empty empty empty 17 7 0 10 -262144
-1 -1;
#X obj 418 121 list prepend;
#X obj 418 145 list trim;
#X connect 0 0 1 0;
#X connect 0 0 9 0;
#X connect 1 0 4 0;
#X connect 1 0 5 0;
#X connect 2 0 14 0;
#X connect 3 0 4 1;
#X connect 4 0 13 0;
#X connect 5 0 2 0;
#X connect 6 0 7 1;
#X connect 7 0 28 0;
#X connect 8 0 3 1;
#X connect 9 0 15 0;
#X connect 9 0 29 0;
#X connect 10 0 11 0;
#X connect 11 0 0 0;
#X connect 12 0 11 1;
#X connect 13 0 7 0;
#X connect 14 0 3 0;
#X connect 15 0 16 0;
#X connect 16 0 8 0;
#X connect 17 0 6 0;
#X connect 18 0 32 0;
#X connect 19 0 18 0;
#X connect 20 0 21 0;
#X connect 21 0 15 3;
#X connect 22 0 20 0;
#X connect 23 0 12 0;
#X connect 24 0 15 1;
#X connect 25 0 15 2;
#X connect 26 0 20 1;
#X connect 26 0 22 0;
#X connect 27 0 18 1;
#X connect 27 0 19 0;
#X connect 27 0 20 0;
#X connect 29 0 6 0;
#X connect 30 0 31 0;
#X connect 31 0 17 0;
#X connect 32 0 33 0;
#X connect 33 0 17 0;
#X restore 91 152 pd snd_A;
#X obj 91 97 keypress 115;
#X msg 91 128 25;
#N canvas 176 33 584 412 snd_A 0;
#X obj 77 80 mtof;
#X floatatom 77 103 5 0 0 0 - - -, f 5;
#X floatatom 101 162 5 0 0 0 - - -, f 5;
#X obj 101 229 *~;
#X obj 77 259 +~;
#X obj 101 139 * 2;
#X obj 258 306 line~;
#X obj 77 327 *~;
#X obj 136 205 line~;
#X obj 258 154 bng 15 250 50 0 empty empty empty 17 7 0 10 -262144
-1 -1;
#X obj 77 13 inlet;
#X obj 77 55 +;
#X obj 115 44 * 12;
#X obj 77 299 osc~;
#X obj 101 204 osc~;
#X obj 226 125 pack f f f f;
#X msg 155 183 \$2 \, \$3 \$4;
#X msg 308 273 0 743.009;
#X obj 418 95 pack 0 f;
#X obj 418 71 bng 15 250 50 0 empty empty empty 17 7 0 10 -262144 -1
-1;
#X obj 328 84 /;
#X floatatom 328 106 5 0 0 0 - - -, f 5;
#X obj 317 62 bng 15 250 50 0 empty empty empty 17 7 0 10 -262144 -1
-1;
#X obj 115 23 r Oct_A;
#X obj 207 35 r para1_A;
#X obj 277 35 r para2_A;
#X obj 347 35 r para3_A;
#X obj 463 36 r Release_A;
#X obj 77 362 throw~ out_A;
#X msg 259 273 0.25 1;
#X obj 419 14 inlet;
#X obj 309 181 bng 15 250 50 0 empty empty empty 17 7 0 10 -262144
-1 -1;
#X obj 418 121 list prepend;
#X obj 418 145 list trim;
#X connect 0 0 1 0;
#X connect 0 0 9 0;
#X connect 1 0 4 0;
#X connect 1 0 5 0;
#X connect 2 0 14 0;
#X connect 3 0 4 1;
#X connect 4 0 13 0;
#X connect 5 0 2 0;
#X connect 6 0 7 1;
#X connect 7 0 28 0;
#X connect 8 0 3 1;
#X connect 9 0 15 0;
#X connect 9 0 29 0;
#X connect 10 0 11 0;
#X connect 11 0 0 0;
#X connect 12 0 11 1;
#X connect 13 0 7 0;
#X connect 14 0 3 0;
#X connect 15 0 16 0;
#X connect 16 0 8 0;
#X connect 17 0 6 0;
#X connect 18 0 32 0;
#X connect 19 0 18 0;
#X connect 20 0 21 0;
#X connect 21 0 15 3;
#X connect 22 0 20 0;
#X connect 23 0 12 0;
#X connect 24 0 15 1;
#X connect 25 0 15 2;
#X connect 26 0 20 1;
#X connect 26 0 22 0;
#X connect 27 0 18 1;
#X connect 27 0 19 0;
#X connect 27 0 20 0;
#X connect 29 0 6 0;
#X connect 30 0 31 0;
#X connect 31 0 17 0;
#X connect 32 0 33 0;
#X connect 33 0 17 0;
#X restore 171 152 pd snd_A;
#X obj 171 97 keypress 100;
#X msg 171 128 27;
#N canvas 176 33 584 412 snd_A 0;
#X obj 77 80 mtof;
#X floatatom 77 103 5 0 0 0 - - -, f 5;
#X floatatom 101 162 5 0 0 0 - - -, f 5;
#X obj 101 229 *~;
#X obj 77 259 +~;
#X obj 101 139 * 2;
#X obj 258 306 line~;
#X obj 77 327 *~;
#X obj 136 205 line~;
#X obj 258 154 bng 15 250 50 0 empty empty empty 17 7 0 10 -262144
-1 -1;
#X obj 77 13 inlet;
#X obj 77 55 +;
#X obj 115 44 * 12;
#X obj 77 299 osc~;
#X obj 101 204 osc~;
#X obj 226 125 pack f f f f;
#X msg 155 183 \$2 \, \$3 \$4;
#X msg 308 273 0 743.009;
#X obj 418 95 pack 0 f;
#X obj 418 71 bng 15 250 50 0 empty empty empty 17 7 0 10 -262144 -1
-1;
#X obj 328 84 /;
#X floatatom 328 106 5 0 0 0 - - -, f 5;
#X obj 317 62 bng 15 250 50 0 empty empty empty 17 7 0 10 -262144 -1
-1;
#X obj 115 23 r Oct_A;
#X obj 207 35 r para1_A;
#X obj 277 35 r para2_A;
#X obj 347 35 r para3_A;
#X obj 463 36 r Release_A;
#X obj 77 362 throw~ out_A;
#X msg 259 273 0.25 1;
#X obj 419 14 inlet;
#X obj 309 181 bng 15 250 50 0 empty empty empty 17 7 0 10 -262144
-1 -1;
#X obj 418 121 list prepend;
#X obj 418 145 list trim;
#X connect 0 0 1 0;
#X connect 0 0 9 0;
#X connect 1 0 4 0;
#X connect 1 0 5 0;
#X connect 2 0 14 0;
#X connect 3 0 4 1;
#X connect 4 0 13 0;
#X connect 5 0 2 0;
#X connect 6 0 7 1;
#X connect 7 0 28 0;
#X connect 8 0 3 1;
#X connect 9 0 15 0;
#X connect 9 0 29 0;
#X connect 10 0 11 0;
#X connect 11 0 0 0;
#X connect 12 0 11 1;
#X connect 13 0 7 0;
#X connect 14 0 3 0;
#X connect 15 0 16 0;
#X connect 16 0 8 0;
#X connect 17 0 6 0;
#X connect 18 0 32 0;
#X connect 19 0 18 0;
#X connect 20 0 21 0;
#X connect 21 0 15 3;
#X connect 22 0 20 0;
#X connect 23 0 12 0;
#X connect 24 0 15 1;
#X connect 25 0 15 2;
#X connect 26 0 20 1;
#X connect 26 0 22 0;
#X connect 27 0 18 1;
#X connect 27 0 19 0;
#X connect 27 0 20 0;
#X connect 29 0 6 0;
#X connect 30 0 31 0;
#X connect 31 0 17 0;
#X connect 32 0 33 0;
#X connect 33 0 17 0;
#X restore 321 152 pd snd_A;
#X obj 321 97 keypress 103;
#X msg 321 128 30;
#N canvas 176 33 584 412 snd_A 0;
#X obj 77 80 mtof;
#X floatatom 77 103 5 0 0 0 - - -, f 5;
#X floatatom 101 162 5 0 0 0 - - -, f 5;
#X obj 101 229 *~;
#X obj 77 259 +~;
#X obj 101 139 * 2;
#X obj 258 306 line~;
#X obj 77 327 *~;
#X obj 136 205 line~;
#X obj 258 154 bng 15 250 50 0 empty empty empty 17 7 0 10 -262144
-1 -1;
#X obj 77 13 inlet;
#X obj 77 55 +;
#X obj 115 44 * 12;
#X obj 77 299 osc~;
#X obj 101 204 osc~;
#X obj 226 125 pack f f f f;
#X msg 155 183 \$2 \, \$3 \$4;
#X msg 308 273 0 743.009;
#X obj 418 95 pack 0 f;
#X obj 418 71 bng 15 250 50 0 empty empty empty 17 7 0 10 -262144 -1
-1;
#X obj 328 84 /;
#X floatatom 328 106 5 0 0 0 - - -, f 5;
#X obj 317 62 bng 15 250 50 0 empty empty empty 17 7 0 10 -262144 -1
-1;
#X obj 115 23 r Oct_A;
#X obj 207 35 r para1_A;
#X obj 277 35 r para2_A;
#X obj 347 35 r para3_A;
#X obj 463 36 r Release_A;
#X obj 77 362 throw~ out_A;
#X msg 259 273 0.25 1;
#X obj 419 14 inlet;
#X obj 309 181 bng 15 250 50 0 empty empty empty 17 7 0 10 -262144
-1 -1;
#X obj 418 121 list prepend;
#X obj 418 145 list trim;
#X connect 0 0 1 0;
#X connect 0 0 9 0;
#X connect 1 0 4 0;
#X connect 1 0 5 0;
#X connect 2 0 14 0;
#X connect 3 0 4 1;
#X connect 4 0 13 0;
#X connect 5 0 2 0;
#X connect 6 0 7 1;
#X connect 7 0 28 0;
#X connect 8 0 3 1;
#X connect 9 0 15 0;
#X connect 9 0 29 0;
#X connect 10 0 11 0;
#X connect 11 0 0 0;
#X connect 12 0 11 1;
#X connect 13 0 7 0;
#X connect 14 0 3 0;
#X connect 15 0 16 0;
#X connect 16 0 8 0;
#X connect 17 0 6 0;
#X connect 18 0 32 0;
#X connect 19 0 18 0;
#X connect 20 0 21 0;
#X connect 21 0 15 3;
#X connect 22 0 20 0;
#X connect 23 0 12 0;
#X connect 24 0 15 1;
#X connect 25 0 15 2;
#X connect 26 0 20 1;
#X connect 26 0 22 0;
#X connect 27 0 18 1;
#X connect 27 0 19 0;
#X connect 27 0 20 0;
#X connect 29 0 6 0;
#X connect 30 0 31 0;
#X connect 31 0 17 0;
#X connect 32 0 33 0;
#X connect 33 0 17 0;
#X restore 401 152 pd snd_A;
#X obj 401 97 keypress 104;
#X msg 401 128 32;
#N canvas 176 33 584 412 snd_A 0;
#X obj 77 80 mtof;
#X floatatom 77 103 5 0 0 0 - - -, f 5;
#X floatatom 101 162 5 0 0 0 - - -, f 5;
#X obj 101 229 *~;
#X obj 77 259 +~;
#X obj 101 139 * 2;
#X obj 258 306 line~;
#X obj 77 327 *~;
#X obj 136 205 line~;
#X obj 258 154 bng 15 250 50 0 empty empty empty 17 7 0 10 -262144
-1 -1;
#X obj 77 13 inlet;
#X obj 77 55 +;
#X obj 115 44 * 12;
#X obj 77 299 osc~;
#X obj 101 204 osc~;
#X obj 226 125 pack f f f f;
#X msg 155 183 \$2 \, \$3 \$4;
#X msg 308 273 0 743.009;
#X obj 418 95 pack 0 f;
#X obj 418 71 bng 15 250 50 0 empty empty empty 17 7 0 10 -262144 -1
-1;
#X obj 328 84 /;
#X floatatom 328 106 5 0 0 0 - - -, f 5;
#X obj 317 62 bng 15 250 50 0 empty empty empty 17 7 0 10 -262144 -1
-1;
#X obj 115 23 r Oct_A;
#X obj 207 35 r para1_A;
#X obj 277 35 r para2_A;
#X obj 347 35 r para3_A;
#X obj 463 36 r Release_A;
#X obj 77 362 throw~ out_A;
#X msg 259 273 0.25 1;
#X obj 419 14 inlet;
#X obj 309 181 bng 15 250 50 0 empty empty empty 17 7 0 10 -262144
-1 -1;
#X obj 418 121 list prepend;
#X obj 418 145 list trim;
#X connect 0 0 1 0;
#X connect 0 0 9 0;
#X connect 1 0 4 0;
#X connect 1 0 5 0;
#X connect 2 0 14 0;
#X connect 3 0 4 1;
#X connect 4 0 13 0;
#X connect 5 0 2 0;
#X connect 6 0 7 1;
#X connect 7 0 28 0;
#X connect 8 0 3 1;
#X connect 9 0 15 0;
#X connect 9 0 29 0;
#X connect 10 0 11 0;
#X connect 11 0 0 0;
#X connect 12 0 11 1;
#X connect 13 0 7 0;
#X connect 14 0 3 0;
#X connect 15 0 16 0;
#X connect 16 0 8 0;
#X connect 17 0 6 0;
#X connect 18 0 32 0;
#X connect 19 0 18 0;
#X connect 20 0 21 0;
#X connect 21 0 15 3;
#X connect 22 0 20 0;
#X connect 23 0 12 0;
#X connect 24 0 15 1;
#X connect 25 0 15 2;
#X connect 26 0 20 1;
#X connect 26 0 22 0;
#X connect 27 0 18 1;
#X connect 27 0 19 0;
#X connect 27 0 20 0;
#X connect 29 0 6 0;
#X connect 30 0 31 0;
#X connect 31 0 17 0;
#X connect 32 0 33 0;
#X connect 33 0 17 0;
#X restore 481 152 pd snd_A;
#X obj 481 97 keypress 106;
#X msg 481 128 34;
#N canvas 176 33 584 412 snd_A 0;
#X obj 77 80 mtof;
#X floatatom 77 103 5 0 0 0 - - -, f 5;
#X floatatom 101 162 5 0 0 0 - - -, f 5;
#X obj 101 229 *~;
#X obj 77 259 +~;
#X obj 101 139 * 2;
#X obj 258 306 line~;
#X obj 77 327 *~;
#X obj 136 205 line~;
#X obj 258 154 bng 15 250 50 0 empty empty empty 17 7 0 10 -262144
-1 -1;
#X obj 77 13 inlet;
#X obj 77 55 +;
#X obj 115 44 * 12;
#X obj 77 299 osc~;
#X obj 101 204 osc~;
#X obj 226 125 pack f f f f;
#X msg 155 183 \$2 \, \$3 \$4;
#X msg 308 273 0 743.009;
#X obj 418 95 pack 0 f;
#X obj 418 71 bng 15 250 50 0 empty empty empty 17 7 0 10 -262144 -1
-1;
#X obj 328 84 /;
#X floatatom 328 106 5 0 0 0 - - -, f 5;
#X obj 317 62 bng 15 250 50 0 empty empty empty 17 7 0 10 -262144 -1
-1;
#X obj 115 23 r Oct_A;
#X obj 207 35 r para1_A;
#X obj 277 35 r para2_A;
#X obj 347 35 r para3_A;
#X obj 463 36 r Release_A;
#X obj 77 362 throw~ out_A;
#X msg 259 273 0.25 1;
#X obj 419 14 inlet;
#X obj 309 181 bng 15 250 50 0 empty empty empty 17 7 0 10 -262144
-1 -1;
#X obj 418 121 list prepend;
#X obj 418 145 list trim;
#X connect 0 0 1 0;
#X connect 0 0 9 0;
#X connect 1 0 4 0;
#X connect 1 0 5 0;
#X connect 2 0 14 0;
#X connect 3 0 4 1;
#X connect 4 0 13 0;
#X connect 5 0 2 0;
#X connect 6 0 7 1;
#X connect 7 0 28 0;
#X connect 8 0 3 1;
#X connect 9 0 15 0;
#X connect 9 0 29 0;
#X connect 10 0 11 0;
#X connect 11 0 0 0;
#X connect 12 0 11 1;
#X connect 13 0 7 0;
#X connect 14 0 3 0;
#X connect 15 0 16 0;
#X connect 16 0 8 0;
#X connect 17 0 6 0;
#X connect 18 0 32 0;
#X connect 19 0 18 0;
#X connect 20 0 21 0;
#X connect 21 0 15 3;
#X connect 22 0 20 0;
#X connect 23 0 12 0;
#X connect 24 0 15 1;
#X connect 25 0 15 2;
#X connect 26 0 20 1;
#X connect 26 0 22 0;
#X connect 27 0 18 1;
#X connect 27 0 19 0;
#X connect 27 0 20 0;
#X connect 29 0 6 0;
#X connect 30 0 31 0;
#X connect 31 0 17 0;
#X connect 32 0 33 0;
#X connect 33 0 17 0;
#X restore 621 152 pd snd_A;
#X msg 621 128 37;
#N canvas 176 33 584 412 snd_A 0;
#X obj 77 80 mtof;
#X floatatom 77 103 5 0 0 0 - - -, f 5;
#X floatatom 101 162 5 0 0 0 - - -, f 5;
#X obj 101 229 *~;
#X obj 77 259 +~;
#X obj 101 139 * 2;
#X obj 258 306 line~;
#X obj 77 327 *~;
#X obj 136 205 line~;
#X obj 258 154 bng 15 250 50 0 empty empty empty 17 7 0 10 -262144
-1 -1;
#X obj 77 13 inlet;
#X obj 77 55 +;
#X obj 115 44 * 12;
#X obj 77 299 osc~;
#X obj 101 204 osc~;
#X obj 226 125 pack f f f f;
#X msg 155 183 \$2 \, \$3 \$4;
#X msg 308 273 0 743.009;
#X obj 418 95 pack 0 f;
#X obj 418 71 bng 15 250 50 0 empty empty empty 17 7 0 10 -262144 -1
-1;
#X obj 328 84 /;
#X floatatom 328 106 5 0 0 0 - - -, f 5;
#X obj 317 62 bng 15 250 50 0 empty empty empty 17 7 0 10 -262144 -1
-1;
#X obj 115 23 r Oct_A;
#X obj 207 35 r para1_A;
#X obj 277 35 r para2_A;
#X obj 347 35 r para3_A;
#X obj 463 36 r Release_A;
#X obj 77 362 throw~ out_A;
#X msg 259 273 0.25 1;
#X obj 419 14 inlet;
#X obj 309 181 bng 15 250 50 0 empty empty empty 17 7 0 10 -262144
-1 -1;
#X obj 418 121 list prepend;
#X obj 418 145 list trim;
#X connect 0 0 1 0;
#X connect 0 0 9 0;
#X connect 1 0 4 0;
#X connect 1 0 5 0;
#X connect 2 0 14 0;
#X connect 3 0 4 1;
#X connect 4 0 13 0;
#X connect 5 0 2 0;
#X connect 6 0 7 1;
#X connect 7 0 28 0;
#X connect 8 0 3 1;
#X connect 9 0 15 0;
#X connect 9 0 29 0;
#X connect 10 0 11 0;
#X connect 11 0 0 0;
#X connect 12 0 11 1;
#X connect 13 0 7 0;
#X connect 14 0 3 0;
#X connect 15 0 16 0;
#X connect 16 0 8 0;
#X connect 17 0 6 0;
#X connect 18 0 32 0;
#X connect 19 0 18 0;
#X connect 20 0 21 0;
#X connect 21 0 15 3;
#X connect 22 0 20 0;
#X connect 23 0 12 0;
#X connect 24 0 15 1;
#X connect 25 0 15 2;
#X connect 26 0 20 1;
#X connect 26 0 22 0;
#X connect 27 0 18 1;
#X connect 27 0 19 0;
#X connect 27 0 20 0;
#X connect 29 0 6 0;
#X connect 30 0 31 0;
#X connect 31 0 17 0;
#X connect 32 0 33 0;
#X connect 33 0 17 0;
#X restore 701 152 pd snd_A;
#X obj 621 97 keypress 108;
#X obj 701 97 keypress 59;
#X msg 701 128 39;
#X connect 1 0 2 0;
#X connect 3 0 1 0;
#X connect 3 1 2 1;
#X connect 5 0 4 0;
#X connect 6 0 5 0;
#X connect 6 1 4 1;
#X connect 8 0 9 0;
#X connect 8 1 7 1;
#X connect 9 0 7 0;
#X connect 11 0 12 0;
#X connect 11 1 10 1;
#X connect 12 0 10 0;
#X connect 14 0 15 0;
#X connect 14 1 13 1;
#X connect 15 0 13 0;
#X connect 17 0 18 0;
#X connect 17 1 16 1;
#X connect 18 0 16 0;
#X connect 20 0 21 0;
#X connect 20 1 19 1;
#X connect 21 0 19 0;
#X connect 23 0 24 0;
#X connect 23 1 22 1;
#X connect 24 0 22 0;
#X connect 26 0 27 0;
#X connect 26 1 25 1;
#X connect 27 0 25 0;
#X connect 29 0 30 0;
#X connect 29 1 28 1;
#X connect 30 0 28 0;
#X connect 32 0 33 0;
#X connect 32 1 31 1;
#X connect 33 0 31 0;
#X connect 35 0 36 0;
#X connect 35 1 34 1;
#X connect 36 0 34 0;
#X connect 38 0 39 0;
#X connect 38 1 37 1;
#X connect 39 0 37 0;
#X connect 41 0 42 0;
#X connect 41 1 40 1;
#X connect 42 0 40 0;
#X connect 44 0 45 0;
#X connect 44 1 43 1;
#X connect 45 0 43 0;
#X connect 47 0 46 0;
#X connect 49 0 47 0;
#X connect 49 1 46 1;
#X connect 50 0 51 0;
#X connect 50 1 48 1;
#X connect 51 0 48 0;
