#N canvas 176 32 593 457 16;
#X obj 90 52 key;
#X obj 235 48 keyup;
#X obj 90 175 t b b;
#X msg 133 213 stop;
#X msg 90 249 1;
#X obj 90 307 change;
#X obj 235 212 del 50;
#X msg 235 248 0;
#X floatatom 90 88 5 0 0 0 - - -, f 5;
#X floatatom 235 85 5 0 0 0 - - -, f 5;
#X obj 90 138 sel \$1;
#X obj 235 135 sel \$1;
#X obj 89 374 outlet;
#X obj 89 337 sel 1 0;
#X obj 159 374 outlet;
#X connect 0 0 8 0;
#X connect 0 0 10 0;
#X connect 1 0 9 0;
#X connect 1 0 11 0;
#X connect 2 0 4 0;
#X connect 2 1 3 0;
#X connect 3 0 6 0;
#X connect 4 0 5 0;
#X connect 5 0 13 0;
#X connect 6 0 7 0;
#X connect 7 0 5 0;
#X connect 10 0 2 0;
#X connect 11 0 6 0;
#X connect 13 0 12 0;
#X connect 13 1 14 0;
