#N canvas 55 120 1174 534 8;
#N canvas 529 50 450 300 delay_effect 0;
#X obj 105 120 vsl 15 32 0 1 0 1 empty empty delay 0 -9 0 10 -262144
-1 -1 600 1;
#X obj 158 68 inlet;
#X obj 247 175 *~;
#X obj 62 68 loadbang;
#X obj 115 68 inlet~;
#X obj 188 224 outlet~;
#X obj 248 205 delwrite~ \$0-delayA 1000;
#X obj 247 124 delread~ \$0-delayA \$1;
#X msg 284 95 500;
#X obj 232 68 inlet;
#X obj 284 68 loadbang;
#X connect 0 0 2 1;
#X connect 1 0 0 0;
#X connect 2 0 5 0;
#X connect 2 0 6 0;
#X connect 3 0 0 0;
#X connect 4 0 5 0;
#X connect 4 0 6 0;
#X connect 7 0 2 0;
#X connect 8 0 7 0;
#X connect 9 0 7 0;
#X connect 10 0 8 0;
#X coords 0 -1 1 1 120 61 2 100 100;
#X restore 25 338 pd delay_effect;
#N canvas 1166 469 713 420 finalout 0;
#X obj 425 36 tgl 15 0 empty empty empty 17 7 0 10 -262144 -1 -1 1
1;
#X obj 425 10 loadbang;
#X obj 425 130 tabwrite~ \$0-out;
#X msg 433 61 \; pd dsp \$1;
#X text 498 67 dsp on;
#X obj 258 385 dac~;
#X obj 109 136 cnv 15 60 40 empty empty empty 20 12 0 14 -262144 -66577
0;
#N canvas 0 50 450 278 (subpatch) 0;
#X array \$0-out 100 float 5;
#A 0 0 0 0 0 0 0 0 0 0 0 0 0 0 0 0 0 0 0 0 0 0 0 0 0 0 0 0 0 0 0 0
0 0 0 0 0 0 0 0 0 0 0 0 0 0 0 0 0 0 0 0 0 0 0 0 0 0 0 0 0 0 0 0 0 0
0 0 0 0 0 0 0 0 0 0 0 0 0 0 0 0 0 0 0 0 0 0 0 0 0 0 0 0 0 0 0 0 0 0
0;
#X coords 0 -1 99 1 60 40 1;
#X restore 110 136 graph;
#X obj 40 9 inlet~;
#X obj 194 141 vsl 15 32 0 1 0 1 empty empty empty 0 -9 0 10 -204786
-1 -1 400 1;
#X text 193 102 VOL;
#X obj 40 41 *~;
#X obj 274 278 lop~ 16000;
#X obj 274 305 hip~ 5;
#X obj 487 106 r~ finalWave;
#X obj 294 385 s~ finalWave;
#X msg 362 192 room 0.9 \, damp 1.8 \, dry 0.4 \, wet 0.8;
#X obj 362 165 loadbang;
#X obj 194 118 tgl 15 0 empty empty empty 17 7 0 10 -262144 -1 -1 1
1;
#X obj 275 334 *~;
#X obj 274 246 vfreeverb~;
#X obj 220 109 vsl 15 64 0 1 0 1 empty empty empty 0 -9 0 10 -204800
-1 -1 4100 1;
#X obj 106 203 expr~ $v1*(1-$f2);
#X obj 236 203 expr~ $v1*$f2;
#X msg 194 66 1;
#X obj 194 43 loadbang;
#X text 103 102 MONO;
#X obj 425 106 metro 50;
#X connect 0 0 3 0;
#X connect 0 0 27 0;
#X connect 1 0 0 0;
#X connect 8 0 11 0;
#X connect 9 0 11 1;
#X connect 11 0 22 0;
#X connect 11 0 23 0;
#X connect 12 0 13 0;
#X connect 13 0 19 0;
#X connect 14 0 2 0;
#X connect 16 0 20 2;
#X connect 17 0 16 0;
#X connect 18 0 19 1;
#X connect 19 0 5 1;
#X connect 19 0 5 0;
#X connect 19 0 15 0;
#X connect 20 0 12 0;
#X connect 21 0 22 1;
#X connect 21 0 23 1;
#X connect 22 0 12 0;
#X connect 23 0 20 0;
#X connect 24 0 18 0;
#X connect 25 0 24 0;
#X connect 27 0 2 0;
#X coords 0 -1 1 1 146 80 2 100 100;
#X restore 25 423 pd finalout;
#X obj 25 293 sound_set1;
#X obj 25 35 osc-rcv 3000 pd, f 72;
#N canvas 2 103 450 250 (subpatch) 0;
#X array chord 24 float 3;
#A 0 2 4 7 9 11 14 16 19 21 23 26 28 31 33 35 38 40 43 45 47 50 52
55 59;
#X coords 0 127 24 0 100 50 1 0 0;
#X restore 860 353 graph;
#N canvas 2 103 450 250 (subpatch) 0;
#X array c1 5 float 3;
#A 0 2 4 7 9 11;
#X coords 0 12 5 0 50 50 1 0 0;
#X restore 959 353 graph;
#X obj 741 76 bng 15 250 50 0 empty empty empty 17 7 0 10 -262144 -1
-1;
#X obj 741 93 chord_set c1;
#N canvas 2 103 450 250 (subpatch) 0;
#X array c2 5 float 3;
#A 0 0 2 4 7 9;
#X coords 0 12 5 0 50 50 1 0 0;
#X restore 1008 353 graph;
#X obj 830 76 bng 15 250 50 0 empty empty empty 17 7 0 10 -262144 -1
-1;
#N canvas 2 103 450 250 (subpatch) 0;
#X array c3 5 float 3;
#A 0 0 4 5 7 11;
#X coords 0 12 5 0 50 50 1 0 0;
#X restore 1058 353 graph;
#X obj 919 76 bng 15 250 50 0 empty empty empty 17 7 0 10 -262144 -1
-1;
#X text 25 17 NODE-RED OSC;
#X obj 830 93 chord_set c2;
#X obj 919 93 chord_set c3;
#N canvas 2 103 450 250 (subpatch) 0;
#X array c4 5 float 3;
#A 0 1 3 6 8 10;
#X coords 0 12 5 0 50 50 1 0 0;
#X restore 1107 353 graph;
#X obj 1008 76 bng 15 250 50 0 empty empty empty 17 7 0 10 -262144
-1 -1;
#X obj 1008 93 chord_set c4;
#X obj 741 15 osc-rcv 3001 pd;
#X floatatom 741 36 5 0 0 0 - - -;
#X obj 741 56 sel 0 1 2 3;
#X obj 555 56 s oct;
#X obj 46 219 r oct;
#X obj 116 219 r oct;
#X obj 185 219 r oct;
#X obj 254 219 r oct;
#X obj 323 219 r oct;
#X obj 393 219 r oct;
#X obj 462 219 r oct;
#X obj 531 219 r oct;
#X obj 600 219 r oct;
#X obj 669 219 r oct;
#X msg 624 34 48;
#X msg 654 34 60;
#X msg 683 34 72;
#X msg 594 34 36;
#X obj 440 7 tgl 15 0 empty empty empty 17 7 0 10 -262144 -1 -1 0 1
;
#X msg 535 34 12;
#X msg 505 34 0;
#X msg 565 34 24;
#X obj 25 239 +;
#X obj 46 239 r mod;
#X obj 95 239 +;
#X obj 116 240 r mod;
#X obj 164 239 +;
#X obj 185 240 r mod;
#X obj 233 239 +;
#X obj 254 240 r mod;
#X obj 302 239 +;
#X obj 323 240 r mod;
#X obj 371 239 +;
#X obj 393 240 r mod;
#X obj 441 239 +;
#X obj 462 240 r mod;
#X obj 510 239 +;
#X obj 531 240 r mod;
#X obj 579 239 +;
#X obj 600 240 r mod;
#X obj 648 239 +;
#X obj 669 240 r mod;
#X msg 505 84 0;
#X obj 555 106 s mod;
#X msg 535 84 1;
#X msg 565 84 2;
#X msg 594 84 3;
#X msg 624 84 4;
#X msg 654 84 5;
#X msg 683 84 6;
#X obj 25 219 +;
#X obj 95 219 +;
#X obj 164 219 +;
#X obj 233 219 +;
#X obj 302 219 +;
#X obj 371 219 +;
#X obj 441 219 +;
#X obj 510 219 +;
#X obj 579 219 +;
#X obj 648 219 +;
#X obj 505 12 loadbang;
#X obj 95 293 sound_set1;
#X obj 164 293 sound_set1;
#X obj 233 293 sound_set1;
#X obj 302 293 sound_set1;
#X obj 371 293 sound_set1;
#X obj 441 293 sound_set1;
#X obj 510 293 sound_set1;
#X obj 579 293 sound_set1;
#X obj 648 293 sound_set1;
#X obj 440 24 metro 250;
#X obj 738 219 r oct;
#X obj 717 239 +;
#X obj 738 240 r mod;
#X obj 717 219 +;
#X obj 717 293 sound_set1;
#X obj 807 219 r oct;
#X obj 786 239 +;
#X obj 807 240 r mod;
#X obj 786 219 +;
#X obj 786 293 sound_set1;
#X obj 876 219 r oct;
#X obj 855 239 +;
#X obj 876 240 r mod;
#X obj 855 219 +;
#X obj 855 293 sound_set1;
#X obj 440 41 random 12;
#X obj 25 90 t f f;
#X obj 25 108 pack f f;
#X obj 73 90 tabread chord;
#X floatatom 73 108 5 0 0 0 - - -;
#N canvas 672 250 568 528 parameter_t 0;
#X obj 144 115 vsl 10 50 20 1 0 1 empty empty empty 0 -9 0 10 -204786
-1 -1 2300 1;
#X obj 112 115 vsl 10 50 0 10000 0 1 empty empty empty 0 -9 0 10 -261234
-1 -1 2700 1;
#X obj 159 115 vsl 10 50 10 4000 0 1 empty empty empty 0 -9 0 10 -204800
-1 -1 0 1;
#X floatatom 112 283 6 0 0 2 - - -;
#X floatatom 157 283 6 0 0 2 - - -;
#X floatatom 198 283 6 0 0 2 - - -;
#X floatatom 239 283 7 0 0 2 - - -;
#X obj 128 115 vsl 10 50 0 10000 0 1 empty empty empty 0 -9 0 10 -262130
-1 -1 800 1;
#X floatatom 196 392 6 0 0 2 - - -;
#X floatatom 196 343 5 0 0 0 - - -;
#X obj 196 367 /;
#X obj 196 316 bng 15 250 50 0 empty empty empty 17 7 0 10 -262144
-1 -1;
#X obj 58 411 s para1_t;
#X obj 157 411 s para2_t;
#X obj 255 411 s para3_t;
#X obj 354 411 s para4_t;
#X text 102 99 end;
#X obj 106 45 loadbang;
#X obj 106 65 del 50;
#X connect 0 0 5 0;
#X connect 1 0 3 0;
#X connect 1 0 12 0;
#X connect 2 0 6 0;
#X connect 2 0 15 0;
#X connect 5 0 10 1;
#X connect 5 0 11 0;
#X connect 5 0 14 0;
#X connect 6 0 9 0;
#X connect 7 0 4 0;
#X connect 7 0 13 0;
#X connect 9 0 10 0;
#X connect 10 0 8 0;
#X connect 11 0 9 0;
#X connect 17 0 18 0;
#X connect 18 0 1 0;
#X connect 18 0 7 0;
#X connect 18 0 0 0;
#X connect 18 0 2 0;
#X coords 0 -1 1 1 82 72 2 100 100;
#X restore 259 431 pd parameter_t;
#N canvas 672 250 568 528 parameter_s 0;
#X obj 144 116 vsl 10 50 20 1 0 1 empty empty empty 0 -9 0 10 -204786
-1 -1 600 1;
#X obj 112 116 vsl 10 50 0 10000 0 1 empty empty empty 0 -9 0 10 -261234
-1 -1 600 1;
#X obj 159 116 vsl 10 50 10 4000 0 1 empty empty empty 0 -9 0 10 -204800
-1 -1 0 1;
#X floatatom 112 283 6 0 0 2 - - -;
#X floatatom 157 283 6 0 0 2 - - -;
#X floatatom 198 283 6 0 0 2 - - -;
#X floatatom 239 283 7 0 0 2 - - -;
#X obj 128 116 vsl 10 50 0 10000 0 1 empty empty empty 0 -9 0 10 -262130
-1 -1 300 1;
#X floatatom 196 392 6 0 0 2 - - -;
#X floatatom 196 343 5 0 0 0 - - -;
#X obj 196 367 /;
#X obj 196 316 bng 15 250 50 0 empty empty empty 17 7 0 10 -262144
-1 -1;
#X obj 58 411 s para1_s;
#X obj 157 411 s para2_s;
#X obj 256 411 s para3_s;
#X obj 354 411 s para4_s;
#X text 102 99 start;
#X obj 106 45 loadbang;
#X obj 106 65 del 50;
#X connect 0 0 5 0;
#X connect 1 0 3 0;
#X connect 1 0 12 0;
#X connect 2 0 6 0;
#X connect 2 0 15 0;
#X connect 5 0 10 1;
#X connect 5 0 11 0;
#X connect 5 0 14 0;
#X connect 6 0 9 0;
#X connect 7 0 4 0;
#X connect 7 0 13 0;
#X connect 9 0 10 0;
#X connect 10 0 8 0;
#X connect 11 0 9 0;
#X connect 17 0 18 0;
#X connect 18 0 1 0;
#X connect 18 0 7 0;
#X connect 18 0 0 0;
#X connect 18 0 2 0;
#X coords 0 -1 1 1 82 72 2 100 100;
#X restore 176 431 pd parameter_s;
#X msg 63 276 0;
#X msg 133 276 1;
#X msg 203 276 2;
#X msg 273 276 3;
#X obj 42 259 loadbang;
#X obj 112 259 loadbang;
#X obj 182 259 loadbang;
#X obj 252 259 loadbang;
#X obj 322 259 loadbang;
#X obj 392 259 loadbang;
#X obj 462 259 loadbang;
#X obj 532 259 loadbang;
#X obj 602 259 loadbang;
#X obj 672 259 loadbang;
#X obj 732 259 loadbang;
#X obj 802 259 loadbang;
#X obj 872 259 loadbang;
#X msg 343 276 4;
#X msg 413 276 5;
#X msg 483 276 6;
#X msg 553 276 7;
#X msg 623 276 8;
#X msg 693 276 9;
#X msg 753 276 10;
#X msg 823 276 11;
#X msg 893 276 12;
#N canvas 350 279 462 226 keyboard 0;
#X obj 42 182 outlet;
#X obj 10 31 keyname;
#X obj 42 143 sel q w e r t y u i o p @ [, f 59;
#X obj 42 58 pack f s;
#X obj 42 78 route 1;
#X obj 42 125 symbol;
#X msg 42 162 1;
#X msg 72 162 2;
#X msg 102 162 3;
#X msg 132 162 4;
#X msg 162 162 5;
#X msg 192 162 6;
#X msg 222 162 7;
#X msg 252 162 8;
#X msg 282 162 9;
#X msg 312 162 10;
#X msg 342 162 11;
#X msg 372 162 12;
#X msg 402 162 13;
#X connect 1 0 3 0;
#X connect 1 1 3 1;
#X connect 2 0 6 0;
#X connect 2 1 7 0;
#X connect 2 2 8 0;
#X connect 2 3 9 0;
#X connect 2 4 10 0;
#X connect 2 5 11 0;
#X connect 2 6 12 0;
#X connect 2 7 13 0;
#X connect 2 8 14 0;
#X connect 2 9 15 0;
#X connect 2 10 16 0;
#X connect 2 11 17 0;
#X connect 3 0 4 0;
#X connect 4 0 5 0;
#X connect 5 0 2 0;
#X connect 6 0 0 0;
#X connect 7 0 0 0;
#X connect 8 0 0 0;
#X connect 9 0 0 0;
#X connect 10 0 0 0;
#X connect 11 0 0 0;
#X connect 12 0 0 0;
#X connect 13 0 0 0;
#X connect 14 0 0 0;
#X connect 15 0 0 0;
#X connect 16 0 0 0;
#X connect 17 0 0 0;
#X connect 18 0 0 0;
#X restore 440 61 pd keyboard;
#X obj 425 85 expr (12-$i1) \;;
#X floatatom 425 105 5 0 0 0 - - -;
#X obj 25 172 bng 15 250 50 0 empty empty empty 17 7 0 10 -262144 -1
-1;
#X obj 92 172 bng 15 250 50 0 empty empty empty 17 7 0 10 -262144 -1
-1;
#X obj 160 172 bng 15 250 50 0 empty empty empty 17 7 0 10 -262144
-1 -1;
#X obj 228 172 bng 15 250 50 0 empty empty empty 17 7 0 10 -262144
-1 -1;
#X obj 296 172 bng 15 250 50 0 empty empty empty 17 7 0 10 -262144
-1 -1;
#X obj 364 172 bng 15 250 50 0 empty empty empty 17 7 0 10 -262144
-1 -1;
#X obj 432 172 bng 15 250 50 0 empty empty empty 17 7 0 10 -262144
-1 -1;
#X obj 499 172 bng 15 250 50 0 empty empty empty 17 7 0 10 -262144
-1 -1;
#X obj 567 172 bng 15 250 50 0 empty empty empty 17 7 0 10 -262144
-1 -1;
#X obj 635 172 bng 15 250 50 0 empty empty empty 17 7 0 10 -262144
-1 -1;
#X obj 703 172 bng 15 250 50 0 empty empty empty 17 7 0 10 -262144
-1 -1;
#X obj 771 172 bng 15 250 50 0 empty empty empty 17 7 0 10 -262144
-1 -1;
#X obj 840 172 bng 15 250 50 0 empty empty empty 17 7 0 10 -262144
-1 -1;
#X obj 25 125 route 1 2 3 4 5 6 7 8 9 10 11 12 13, f 177;
#X text 471 383 R G B Satulation Bright Duration;
#X obj 254 366 minamo, f 39;
#X obj 472 366 hue, f 48;
#X floatatom 25 55 5 0 0 0 - - -;
#X msg 935 154 0;
#X obj 935 132 loadbang;
#X msg 965 154 50;
#X msg 995 154 75;
#X msg 1024 154 100;
#X msg 1054 154 125;
#X msg 1084 154 150;
#X msg 1114 154 175;
#X obj 985 176 s pdelay;
#X obj 49 151 r pdelay;
#X obj 109 151 r pdelay;
#X obj 179 151 r pdelay;
#X obj 249 151 r pdelay;
#X obj 319 151 r pdelay;
#X obj 389 151 r pdelay;
#X obj 449 151 r pdelay;
#X obj 519 151 r pdelay;
#X obj 579 151 r pdelay;
#X obj 649 151 r pdelay;
#X obj 719 151 r pdelay;
#X obj 789 151 r pdelay;
#X obj 859 151 r pdelay;
#X obj 42 172 pipe 100;
#X obj 109 172 pipe 100;
#X obj 177 172 pipe 100;
#X obj 245 172 pipe 100;
#X obj 313 172 pipe 100;
#X obj 381 172 pipe 100;
#X obj 449 172 pipe 100;
#X obj 516 172 pipe 100;
#X obj 584 172 pipe 100;
#X obj 652 172 pipe 100;
#X obj 720 172 pipe 100;
#X obj 788 172 pipe 100;
#X obj 857 172 pipe 100;
#X obj 540 491 osc-send 192.168.11.101 12000 /ac100v;
#X obj 732 491 osc-send 192.168.11.101 13000 /ac100v;
#X obj 348 491 osc-send 192.168.11.101 11000 /ac100v;
#X obj 380 451 delay 1000;
#X msg 380 471 0;
#X obj 348 431 bng 15 250 50 0 empty empty empty 17 7 0 10 -262144
-1 -1;
#X obj 348 451 t b b;
#X msg 348 471 255;
#X obj 572 451 delay 1000;
#X msg 572 471 0;
#X obj 540 431 bng 15 250 50 0 empty empty empty 17 7 0 10 -262144
-1 -1;
#X obj 540 451 t b b;
#X msg 540 471 255;
#X obj 764 451 delay 1000;
#X msg 764 471 0;
#X obj 732 431 bng 15 250 50 0 empty empty empty 17 7 0 10 -262144
-1 -1;
#X obj 732 451 t b b;
#X msg 732 471 255;
#X connect 0 0 1 0;
#X connect 2 0 0 0;
#X connect 3 0 157 0;
#X connect 6 0 7 0;
#X connect 9 0 13 0;
#X connect 11 0 14 0;
#X connect 16 0 17 0;
#X connect 18 0 19 0;
#X connect 19 0 20 0;
#X connect 20 0 6 0;
#X connect 20 1 9 0;
#X connect 20 2 11 0;
#X connect 20 3 16 0;
#X connect 22 0 68 1;
#X connect 23 0 69 1;
#X connect 24 0 70 1;
#X connect 25 0 71 1;
#X connect 26 0 72 1;
#X connect 27 0 73 1;
#X connect 28 0 74 1;
#X connect 29 0 75 1;
#X connect 30 0 76 1;
#X connect 31 0 77 1;
#X connect 32 0 21 0;
#X connect 33 0 21 0;
#X connect 34 0 21 0;
#X connect 35 0 21 0;
#X connect 36 0 88 0;
#X connect 37 0 21 0;
#X connect 38 0 21 0;
#X connect 39 0 21 0;
#X connect 40 0 2 0;
#X connect 41 0 40 1;
#X connect 42 0 79 0;
#X connect 43 0 42 1;
#X connect 44 0 80 0;
#X connect 45 0 44 1;
#X connect 46 0 81 0;
#X connect 47 0 46 1;
#X connect 48 0 82 0;
#X connect 49 0 48 1;
#X connect 50 0 83 0;
#X connect 51 0 50 1;
#X connect 52 0 84 0;
#X connect 53 0 52 1;
#X connect 54 0 85 0;
#X connect 55 0 54 1;
#X connect 56 0 86 0;
#X connect 57 0 56 1;
#X connect 58 0 87 0;
#X connect 59 0 58 1;
#X connect 60 0 61 0;
#X connect 62 0 61 0;
#X connect 63 0 61 0;
#X connect 64 0 61 0;
#X connect 65 0 61 0;
#X connect 66 0 61 0;
#X connect 67 0 61 0;
#X connect 68 0 40 0;
#X connect 69 0 42 0;
#X connect 70 0 44 0;
#X connect 71 0 46 0;
#X connect 72 0 48 0;
#X connect 73 0 50 0;
#X connect 74 0 52 0;
#X connect 75 0 54 0;
#X connect 76 0 56 0;
#X connect 77 0 58 0;
#X connect 78 0 34 0;
#X connect 79 0 0 0;
#X connect 80 0 0 0;
#X connect 81 0 0 0;
#X connect 82 0 0 0;
#X connect 83 0 0 0;
#X connect 84 0 0 0;
#X connect 85 0 0 0;
#X connect 86 0 0 0;
#X connect 87 0 0 0;
#X connect 88 0 104 0;
#X connect 89 0 92 1;
#X connect 90 0 93 0;
#X connect 91 0 90 1;
#X connect 92 0 90 0;
#X connect 93 0 0 0;
#X connect 94 0 97 1;
#X connect 95 0 98 0;
#X connect 96 0 95 1;
#X connect 97 0 95 0;
#X connect 98 0 0 0;
#X connect 99 0 102 1;
#X connect 100 0 103 0;
#X connect 101 0 100 1;
#X connect 102 0 100 0;
#X connect 103 0 0 0;
#X connect 105 0 106 0;
#X connect 105 1 107 0;
#X connect 106 0 153 0;
#X connect 107 0 108 0;
#X connect 108 0 106 1;
#X connect 111 0 2 2;
#X connect 112 0 79 2;
#X connect 113 0 80 2;
#X connect 114 0 81 2;
#X connect 115 0 111 0;
#X connect 116 0 112 0;
#X connect 117 0 113 0;
#X connect 118 0 114 0;
#X connect 119 0 128 0;
#X connect 120 0 129 0;
#X connect 121 0 130 0;
#X connect 122 0 131 0;
#X connect 123 0 132 0;
#X connect 124 0 133 0;
#X connect 125 0 134 0;
#X connect 126 0 135 0;
#X connect 127 0 136 0;
#X connect 128 0 82 2;
#X connect 129 0 83 2;
#X connect 130 0 84 2;
#X connect 131 0 85 2;
#X connect 132 0 86 2;
#X connect 133 0 87 2;
#X connect 134 0 93 2;
#X connect 135 0 98 2;
#X connect 136 0 103 2;
#X connect 137 0 105 0;
#X connect 138 0 139 0;
#X connect 140 0 156 5;
#X connect 140 0 155 2;
#X connect 153 0 140 0;
#X connect 153 0 180 0;
#X connect 153 1 141 0;
#X connect 153 1 181 0;
#X connect 153 2 142 0;
#X connect 153 2 182 0;
#X connect 153 3 143 0;
#X connect 153 3 183 0;
#X connect 153 4 144 0;
#X connect 153 4 184 0;
#X connect 153 5 145 0;
#X connect 153 5 185 0;
#X connect 153 6 146 0;
#X connect 153 6 186 0;
#X connect 153 7 147 0;
#X connect 153 7 187 0;
#X connect 153 8 148 0;
#X connect 153 8 188 0;
#X connect 153 9 149 0;
#X connect 153 9 189 0;
#X connect 153 10 150 0;
#X connect 153 10 190 0;
#X connect 153 11 151 0;
#X connect 153 11 191 0;
#X connect 153 12 152 0;
#X connect 153 12 192 0;
#X connect 157 0 105 0;
#X connect 158 0 166 0;
#X connect 159 0 162 0;
#X connect 160 0 166 0;
#X connect 161 0 166 0;
#X connect 162 0 166 0;
#X connect 163 0 166 0;
#X connect 164 0 166 0;
#X connect 165 0 166 0;
#X connect 167 0 180 1;
#X connect 168 0 181 1;
#X connect 169 0 182 1;
#X connect 170 0 183 1;
#X connect 171 0 184 1;
#X connect 172 0 185 1;
#X connect 173 0 186 1;
#X connect 174 0 187 1;
#X connect 175 0 188 1;
#X connect 176 0 189 1;
#X connect 177 0 190 1;
#X connect 178 0 191 1;
#X connect 179 0 192 1;
#X connect 180 0 68 0;
#X connect 181 0 69 0;
#X connect 182 0 70 0;
#X connect 183 0 71 0;
#X connect 184 0 72 0;
#X connect 185 0 73 0;
#X connect 186 0 74 0;
#X connect 187 0 75 0;
#X connect 188 0 76 0;
#X connect 189 0 77 0;
#X connect 190 0 92 0;
#X connect 191 0 97 0;
#X connect 192 0 102 0;
#X connect 196 0 197 0;
#X connect 197 0 195 0;
#X connect 198 0 199 0;
#X connect 199 0 200 0;
#X connect 199 1 196 0;
#X connect 200 0 195 0;
#X connect 201 0 202 0;
#X connect 202 0 193 0;
#X connect 203 0 204 0;
#X connect 204 0 205 0;
#X connect 204 1 201 0;
#X connect 205 0 193 0;
#X connect 206 0 207 0;
#X connect 207 0 194 0;
#X connect 208 0 209 0;
#X connect 209 0 210 0;
#X connect 209 1 206 0;
#X connect 210 0 194 0;
