#N canvas 0 50 660 300 8;
#X obj 44 99 bng 15 250 50 0 empty empty empty 17 7 0 10 -262144 -1
-1;
#X msg 44 176 30 30 0 0 0.05;
#X text 56 160 YELLOW;
#X msg 124 176 10 30 20 0 0.05;
#X text 126 160 WHITE;
#X msg 214 176 10 20 5 0 0.05;
#X text 216 160 WHITE YELLOW;
#X msg 304 176 30 10 0 0 0.05;
#X text 306 160 ORANGE;
#X msg 394 176 20 10 10 0 0.05;
#X text 396 160 PINK;
#X obj 124 99 bng 15 250 50 0 empty empty empty 17 7 0 10 -262144 -1
-1;
#X obj 204 99 bng 15 250 50 0 empty empty empty 17 7 0 10 -262144 -1
-1;
#X obj 284 99 bng 15 250 50 0 empty empty empty 17 7 0 10 -262144 -1
-1;
#X obj 364 99 bng 15 250 50 0 empty empty empty 17 7 0 10 -262144 -1
-1;
#X obj 44 29 inlet;
#X obj 124 29 inlet;
#X obj 204 29 inlet;
#X obj 284 29 inlet;
#X obj 364 29 inlet;
#X msg 487 176 0 30 0 1 0.001;
#X obj 487 155 delay 2000;
#X obj 44 49 del 1;
#X obj 124 49 del 1;
#X obj 204 49 del 1;
#X obj 284 48 del 1;
#X obj 364 48 del 1;
#X obj 44 217 osc-send-d 192.168.11.101 9900 /minamo;
#X connect 0 0 1 0;
#X connect 0 0 21 0;
#X connect 1 0 27 0;
#X connect 3 0 27 0;
#X connect 5 0 27 0;
#X connect 7 0 27 0;
#X connect 9 0 27 0;
#X connect 11 0 3 0;
#X connect 11 0 21 0;
#X connect 12 0 5 0;
#X connect 12 0 21 0;
#X connect 13 0 7 0;
#X connect 13 0 21 0;
#X connect 14 0 9 0;
#X connect 14 0 21 0;
#X connect 15 0 22 0;
#X connect 16 0 23 0;
#X connect 17 0 24 0;
#X connect 18 0 25 0;
#X connect 19 0 26 0;
#X connect 20 0 27 0;
#X connect 21 0 20 0;
#X connect 22 0 0 0;
#X connect 23 0 11 0;
#X connect 24 0 12 0;
#X connect 25 0 13 0;
#X connect 26 0 14 0;
