#N canvas 6 114 1268 504 10;
#X obj 131 112 oscparse;
#X obj 131 138 route list;
#X obj 106 355 outlet;
#X obj 131 85 netreceive -u -b \$1;
#X obj 131 159 route \$2;
#X obj 106 179 unpack 0 0 0 0 0 0 0 0 0 0 0 0 0, f 115;
#X floatatom 106 247 5 0 0 0 - - -;
#X obj 106 269 sel 1;
#X obj 106 292 onebang 1;
#X msg 106 315 1;
#X floatatom 186 247 5 0 0 0 - - -;
#X obj 186 269 sel 1;
#X obj 186 292 onebang 1;
#X floatatom 266 247 5 0 0 0 - - -;
#X obj 266 269 sel 1;
#X obj 266 292 onebang 1;
#X floatatom 346 247 5 0 0 0 - - -;
#X obj 346 269 sel 1;
#X obj 346 292 onebang 1;
#X msg 186 315 2;
#X msg 266 315 3;
#X msg 346 315 4;
#X floatatom 426 247 5 0 0 0 - - -;
#X obj 426 269 sel 1;
#X obj 426 292 onebang 1;
#X floatatom 506 247 5 0 0 0 - - -;
#X obj 506 269 sel 1;
#X obj 506 292 onebang 1;
#X floatatom 586 247 5 0 0 0 - - -;
#X obj 586 269 sel 1;
#X obj 586 292 onebang 1;
#X floatatom 666 247 5 0 0 0 - - -;
#X obj 666 269 sel 1;
#X obj 666 292 onebang 1;
#X msg 426 315 5;
#X msg 506 315 6;
#X msg 586 315 7;
#X msg 666 315 8;
#X floatatom 746 247 5 0 0 0 - - -;
#X obj 746 269 sel 1;
#X obj 746 292 onebang 1;
#X floatatom 826 247 5 0 0 0 - - -;
#X obj 826 269 sel 1;
#X obj 826 292 onebang 1;
#X floatatom 906 247 5 0 0 0 - - -;
#X obj 906 269 sel 1;
#X obj 906 292 onebang 1;
#X floatatom 986 247 5 0 0 0 - - -;
#X obj 986 269 sel 1;
#X obj 986 292 onebang 1;
#X floatatom 1066 247 5 0 0 0 - - -;
#X obj 1066 269 sel 1;
#X obj 1066 292 onebang 1;
#X msg 746 315 9;
#X msg 826 315 10;
#X msg 906 315 11;
#X msg 986 315 12;
#X msg 1066 314 13;
#X obj 132 315 del 500;
#X obj 212 315 del 500;
#X obj 292 315 del 500;
#X obj 372 315 del 500;
#X obj 452 315 del 500;
#X obj 532 315 del 500;
#X obj 612 315 del 500;
#X obj 692 315 del 500;
#X obj 772 315 del 500;
#X obj 852 315 del 500;
#X obj 932 315 del 500;
#X obj 1012 315 del 500;
#X obj 1092 315 del 500;
#X connect 0 0 1 0;
#X connect 1 0 4 0;
#X connect 3 0 0 0;
#X connect 4 0 5 0;
#X connect 5 0 6 0;
#X connect 5 1 10 0;
#X connect 5 2 13 0;
#X connect 5 3 16 0;
#X connect 5 4 22 0;
#X connect 5 5 25 0;
#X connect 5 6 28 0;
#X connect 5 7 31 0;
#X connect 5 8 38 0;
#X connect 5 9 41 0;
#X connect 5 10 44 0;
#X connect 5 11 47 0;
#X connect 5 12 50 0;
#X connect 6 0 7 0;
#X connect 7 0 8 0;
#X connect 7 1 8 1;
#X connect 8 0 9 0;
#X connect 8 0 58 0;
#X connect 9 0 2 0;
#X connect 10 0 11 0;
#X connect 11 0 12 0;
#X connect 11 1 12 1;
#X connect 12 0 19 0;
#X connect 12 0 59 0;
#X connect 13 0 14 0;
#X connect 14 0 15 0;
#X connect 14 1 15 1;
#X connect 15 0 20 0;
#X connect 15 0 60 0;
#X connect 16 0 17 0;
#X connect 17 0 18 0;
#X connect 17 1 18 1;
#X connect 18 0 21 0;
#X connect 18 0 61 0;
#X connect 19 0 2 0;
#X connect 20 0 2 0;
#X connect 21 0 2 0;
#X connect 22 0 23 0;
#X connect 23 0 24 0;
#X connect 23 1 24 1;
#X connect 24 0 34 0;
#X connect 24 0 62 0;
#X connect 25 0 26 0;
#X connect 26 0 27 0;
#X connect 26 1 27 1;
#X connect 27 0 35 0;
#X connect 27 0 63 0;
#X connect 28 0 29 0;
#X connect 29 0 30 0;
#X connect 29 1 30 1;
#X connect 30 0 36 0;
#X connect 30 0 64 0;
#X connect 31 0 32 0;
#X connect 32 0 33 0;
#X connect 32 1 33 1;
#X connect 33 0 37 0;
#X connect 33 0 65 0;
#X connect 34 0 2 0;
#X connect 35 0 2 0;
#X connect 36 0 2 0;
#X connect 37 0 2 0;
#X connect 38 0 39 0;
#X connect 39 0 40 0;
#X connect 39 1 40 1;
#X connect 40 0 53 0;
#X connect 40 0 66 0;
#X connect 41 0 42 0;
#X connect 42 0 43 0;
#X connect 42 1 43 1;
#X connect 43 0 54 0;
#X connect 43 0 67 0;
#X connect 44 0 45 0;
#X connect 45 0 46 0;
#X connect 45 1 46 1;
#X connect 46 0 55 0;
#X connect 46 0 68 0;
#X connect 47 0 48 0;
#X connect 48 0 49 0;
#X connect 48 1 49 1;
#X connect 49 0 56 0;
#X connect 49 0 69 0;
#X connect 50 0 51 0;
#X connect 51 0 52 0;
#X connect 51 1 52 1;
#X connect 52 0 57 0;
#X connect 52 0 70 0;
#X connect 53 0 2 0;
#X connect 54 0 2 0;
#X connect 55 0 2 0;
#X connect 56 0 2 0;
#X connect 57 0 2 0;
#X connect 58 0 8 1;
#X connect 59 0 12 1;
#X connect 60 0 15 1;
#X connect 61 0 18 1;
#X connect 62 0 24 1;
#X connect 63 0 27 1;
#X connect 64 0 30 1;
#X connect 65 0 33 1;
#X connect 66 0 40 1;
#X connect 67 0 43 1;
#X connect 68 0 46 1;
#X connect 69 0 49 1;
#X connect 70 0 52 1;
