#N canvas 470 247 451 446 10;
#X obj 54 270 netsend -u -b;
#X floatatom 54 297 5 0 0 0 - - -;
#X msg 37 240 disconnect;
#X obj 299 207 list trim;
#X obj 299 188 list prepend send;
#X obj 37 35 loadbang;
#X obj 228 8 inlet;
#X obj 332 25 inlet;
#X text 369 25 reconnect;
#X obj 37 95 bng 15 250 50 0 empty empty empty 17 7 0 10 -262144 -1
-1;
#X obj 54 212 list trim;
#X obj 54 190 list prepend connect;
#X obj 54 168 list prepend \$1;
#X obj 54 146 list prepend \$2;
#X obj 299 169 oscformat \$3;
#X obj 299 93 list trim;
#X obj 299 72 list prepend set;
#X msg 299 114 0 30 0 1 0.001;
#X obj 247 93 bng 15 250 50 0 empty empty empty 17 7 0 10 -262144 -1
-1;
#X obj 228 34 t b b a;
#X obj 54 319 sel 0;
#X obj 54 342 s reconnect-\$0;
#X obj 12 8 r reconnect-\$0;
#X obj 54 115 del 10;
#X obj 247 72 del 40;
#X obj 37 58 del 500;
#X obj 178 81 *;
#X msg 178 52 1;
#X obj 178 104 sel 0;
#X connect 0 0 1 0;
#X connect 1 0 20 0;
#X connect 1 0 26 1;
#X connect 2 0 0 0;
#X connect 3 0 0 0;
#X connect 4 0 3 0;
#X connect 5 0 25 0;
#X connect 6 0 19 0;
#X connect 7 0 9 0;
#X connect 9 0 2 0;
#X connect 9 0 23 0;
#X connect 10 0 0 0;
#X connect 11 0 10 0;
#X connect 12 0 11 0;
#X connect 13 0 12 0;
#X connect 14 0 4 0;
#X connect 15 0 17 0;
#X connect 16 0 15 0;
#X connect 17 0 14 0;
#X connect 18 0 17 0;
#X connect 19 0 27 0;
#X connect 19 1 24 0;
#X connect 19 2 16 0;
#X connect 20 0 21 0;
#X connect 22 0 9 0;
#X connect 23 0 13 0;
#X connect 24 0 18 0;
#X connect 25 0 9 0;
#X connect 26 0 28 0;
#X connect 27 0 26 0;
#X connect 28 0 9 0;
