#N canvas 124 183 563 492 10;
#X obj 42 260 netsend -u -b;
#X floatatom 32 287 5 0 0 0 - - -;
#X msg 51 230 disconnect;
#X obj 228 197 list trim;
#X obj 228 175 list prepend send;
#X obj 27 15 loadbang;
#X obj 228 15 inlet;
#X obj 332 15 inlet;
#X text 369 15 reconnect;
#X obj 27 65 bng 15 250 50 0 empty empty empty 17 7 0 10 -262144 -1
-1;
#X obj 61 173 list trim;
#X obj 61 151 list prepend connect;
#X obj 61 128 list prepend \$1;
#X obj 61 106 list prepend \$2;
#X obj 228 143 oscformat \$3;
#X obj 32 309 expr if($i1==0 \, 1 \, 0) \;;
#X floatatom 32 332 5 0 0 0 - - -;
#X obj 32 354 sel 1;
#X obj 32 377 del 1000;
#X obj 44 75 del 500;
#X obj 27 38 del 1000;
#X connect 0 0 1 0;
#X connect 1 0 15 0;
#X connect 2 0 0 0;
#X connect 3 0 0 0;
#X connect 4 0 3 0;
#X connect 5 0 20 0;
#X connect 6 0 14 0;
#X connect 7 0 9 0;
#X connect 9 0 2 0;
#X connect 9 0 19 0;
#X connect 10 0 0 0;
#X connect 11 0 10 0;
#X connect 12 0 11 0;
#X connect 13 0 12 0;
#X connect 14 0 4 0;
#X connect 15 0 16 0;
#X connect 16 0 17 0;
#X connect 17 0 18 0;
#X connect 18 0 9 0;
#X connect 19 0 13 0;
#X connect 20 0 9 0;
