#N canvas 230 67 577 507 10;
#N canvas 223 71 762 578 set_octave 0;
#X obj 106 156 hradio 10 1 1 7 empty empty empty 0 -8 0 10 -262144
-1 -1 5;
#X floatatom 106 117 5 0 0 2 Octave - -, f 5;
#X obj 17 86 inlet;
#X obj 277 122 vsl 30 128 20 1 0 1 empty empty empty 0 -9 0 10 -220534
-1 -1 4100 1;
#X obj 190 122 vsl 30 128 0 10000 0 1 empty empty empty 0 -9 0 10 -259449
-1 -1 3200 1;
#X obj 318 122 vsl 30 128 10 2000 0 1 empty empty empty 0 -9 0 10 -52096
-1 -1 8350 1;
#X floatatom 190 256 6 0 0 2 - - -, f 6;
#X floatatom 236 256 6 0 0 2 - - -, f 6;
#X floatatom 277 256 6 0 0 2 - - -, f 6;
#X floatatom 318 256 7 0 0 2 - - -, f 7;
#X obj 236 122 vsl 30 128 0 10000 0 1 empty empty empty 0 -9 0 10 -220534
-1 -1 400 1;
#X floatatom 283 386 6 0 0 2 - - -, f 6;
#X obj 577 343 hip~ 5;
#X obj 577 322 lop~ 2000;
#X obj 577 365 *~ 0.2;
#X obj 677 57 keyname;
#X floatatom 723 98 5 0 0 0 - - -, f 5;
#X obj 657 87 sel 1;
#X obj 592 145 osc~;
#X obj 465 -27 inlet;
#X text 463 -42 volume;
#X text 359 101 volume;
#N canvas 214 50 932 441 keyinput 0;
#X obj 100 100 cnv 15 80 40 empty empty key_input 4 14 0 10 -18012
-262144 0;
#X msg 29 271 24;
#N canvas 176 50 584 412 snd_A 0;
#X obj 77 80 mtof;
#X floatatom 77 103 5 0 0 0 - - -, f 5;
#X floatatom 101 162 5 0 0 0 - - -, f 5;
#X obj 101 229 *~;
#X obj 77 259 +~;
#X obj 101 139 * 2;
#X obj 258 306 line~;
#X obj 77 327 *~;
#X obj 136 205 line~;
#X obj 258 154 bng 15 250 50 0 empty empty empty 17 7 0 10 -262144
-1 -1;
#X obj 77 13 inlet;
#X obj 77 55 +;
#X obj 115 44 * 12;
#X obj 77 299 osc~;
#X obj 101 204 osc~;
#X obj 226 125 pack f f f f;
#X msg 155 183 \$2 \, \$3 \$4;
#X msg 308 273 0 743.009;
#X obj 418 95 pack 0 f;
#X obj 418 71 bng 15 250 50 0 empty empty empty 17 7 0 10 -262144 -1
-1;
#X obj 328 84 /;
#X floatatom 328 106 5 0 0 0 - - -, f 5;
#X obj 317 62 bng 15 250 50 0 empty empty empty 17 7 0 10 -262144 -1
-1;
#X msg 259 273 0.25 1;
#X obj 429 14 inlet;
#X obj 309 181 bng 15 250 50 0 empty empty empty 17 7 0 10 -262144
-1 -1;
#X obj 418 121 list prepend;
#X obj 418 145 list trim;
#X obj 77 362 throw~ \$0-out_A;
#X obj 115 23 r \$0-Oct_A;
#X obj 187 23 r \$0-para1_A;
#X obj 269 23 r \$0-para2_A;
#X obj 348 23 r \$0-para3_A;
#X obj 463 36 r \$0-Release_A;
#X obj 146 273 r \$0-keyOn;
#X obj 131 300 *~;
#X connect 0 0 1 0;
#X connect 0 0 9 0;
#X connect 1 0 4 0;
#X connect 1 0 5 0;
#X connect 2 0 14 0;
#X connect 3 0 4 1;
#X connect 4 0 13 0;
#X connect 5 0 2 0;
#X connect 6 0 7 1;
#X connect 7 0 35 0;
#X connect 8 0 3 1;
#X connect 9 0 15 0;
#X connect 9 0 23 0;
#X connect 10 0 11 0;
#X connect 11 0 0 0;
#X connect 12 0 11 1;
#X connect 13 0 7 0;
#X connect 14 0 3 0;
#X connect 15 0 16 0;
#X connect 16 0 8 0;
#X connect 17 0 6 0;
#X connect 18 0 26 0;
#X connect 19 0 18 0;
#X connect 20 0 21 0;
#X connect 21 0 15 3;
#X connect 22 0 20 0;
#X connect 23 0 6 0;
#X connect 24 0 25 0;
#X connect 25 0 17 0;
#X connect 26 0 27 0;
#X connect 27 0 17 0;
#X connect 29 0 12 0;
#X connect 30 0 15 1;
#X connect 31 0 15 2;
#X connect 32 0 20 1;
#X connect 32 0 22 0;
#X connect 33 0 18 1;
#X connect 33 0 19 0;
#X connect 33 0 20 0;
#X connect 34 0 35 1;
#X connect 35 0 28 0;
#X restore 29 295 pd snd_A;
#X obj 29 240 keypress 122;
#X msg 109 271 26;
#X obj 109 240 keypress 120;
#X obj 189 240 keypress 99;
#X msg 189 271 28;
#X obj 269 240 keypress 118;
#X msg 269 271 29;
#X obj 349 240 keypress 98;
#X msg 349 271 31;
#X obj 429 240 keypress 110;
#X msg 429 271 33;
#X obj 509 240 keypress 109;
#X msg 509 271 35;
#X obj 589 240 keypress 44;
#X msg 589 271 36;
#X obj 669 240 keypress 46;
#X msg 669 271 38;
#X obj 749 240 keypress 47;
#X msg 749 271 40;
#X obj 89 150 keypress 115;
#X msg 89 181 25;
#X obj 169 150 keypress 100;
#X msg 169 181 27;
#X obj 319 150 keypress 103;
#X msg 319 181 30;
#X obj 399 150 keypress 104;
#X msg 399 181 32;
#X obj 479 150 keypress 106;
#X msg 479 181 34;
#X msg 619 181 37;
#X obj 619 150 keypress 108;
#X obj 699 150 keypress 59;
#X msg 699 181 39;
#N canvas 176 50 584 412 snd_A 0;
#X obj 77 80 mtof;
#X floatatom 77 103 5 0 0 0 - - -, f 5;
#X floatatom 101 162 5 0 0 0 - - -, f 5;
#X obj 101 229 *~;
#X obj 77 259 +~;
#X obj 101 139 * 2;
#X obj 258 306 line~;
#X obj 77 327 *~;
#X obj 136 205 line~;
#X obj 258 154 bng 15 250 50 0 empty empty empty 17 7 0 10 -262144
-1 -1;
#X obj 77 13 inlet;
#X obj 77 55 +;
#X obj 115 44 * 12;
#X obj 77 299 osc~;
#X obj 101 204 osc~;
#X obj 226 125 pack f f f f;
#X msg 155 183 \$2 \, \$3 \$4;
#X msg 308 273 0 743.009;
#X obj 418 95 pack 0 f;
#X obj 418 71 bng 15 250 50 0 empty empty empty 17 7 0 10 -262144 -1
-1;
#X obj 328 84 /;
#X floatatom 328 106 5 0 0 0 - - -, f 5;
#X obj 317 62 bng 15 250 50 0 empty empty empty 17 7 0 10 -262144 -1
-1;
#X msg 259 273 0.25 1;
#X obj 429 14 inlet;
#X obj 309 181 bng 15 250 50 0 empty empty empty 17 7 0 10 -262144
-1 -1;
#X obj 418 121 list prepend;
#X obj 418 145 list trim;
#X obj 77 362 throw~ \$0-out_A;
#X obj 115 23 r \$0-Oct_A;
#X obj 187 23 r \$0-para1_A;
#X obj 269 23 r \$0-para2_A;
#X obj 348 23 r \$0-para3_A;
#X obj 463 36 r \$0-Release_A;
#X obj 146 273 r \$0-keyOn;
#X obj 131 300 *~;
#X connect 0 0 1 0;
#X connect 0 0 9 0;
#X connect 1 0 4 0;
#X connect 1 0 5 0;
#X connect 2 0 14 0;
#X connect 3 0 4 1;
#X connect 4 0 13 0;
#X connect 5 0 2 0;
#X connect 6 0 7 1;
#X connect 7 0 35 0;
#X connect 8 0 3 1;
#X connect 9 0 15 0;
#X connect 9 0 23 0;
#X connect 10 0 11 0;
#X connect 11 0 0 0;
#X connect 12 0 11 1;
#X connect 13 0 7 0;
#X connect 14 0 3 0;
#X connect 15 0 16 0;
#X connect 16 0 8 0;
#X connect 17 0 6 0;
#X connect 18 0 26 0;
#X connect 19 0 18 0;
#X connect 20 0 21 0;
#X connect 21 0 15 3;
#X connect 22 0 20 0;
#X connect 23 0 6 0;
#X connect 24 0 25 0;
#X connect 25 0 17 0;
#X connect 26 0 27 0;
#X connect 27 0 17 0;
#X connect 29 0 12 0;
#X connect 30 0 15 1;
#X connect 31 0 15 2;
#X connect 32 0 20 1;
#X connect 32 0 22 0;
#X connect 33 0 18 1;
#X connect 33 0 19 0;
#X connect 33 0 20 0;
#X connect 34 0 35 1;
#X connect 35 0 28 0;
#X restore 109 295 pd snd_A;
#N canvas 176 50 584 412 snd_A 0;
#X obj 77 80 mtof;
#X floatatom 77 103 5 0 0 0 - - -, f 5;
#X floatatom 101 162 5 0 0 0 - - -, f 5;
#X obj 101 229 *~;
#X obj 77 259 +~;
#X obj 101 139 * 2;
#X obj 258 306 line~;
#X obj 77 327 *~;
#X obj 136 205 line~;
#X obj 258 154 bng 15 250 50 0 empty empty empty 17 7 0 10 -262144
-1 -1;
#X obj 77 13 inlet;
#X obj 77 55 +;
#X obj 115 44 * 12;
#X obj 77 299 osc~;
#X obj 101 204 osc~;
#X obj 226 125 pack f f f f;
#X msg 155 183 \$2 \, \$3 \$4;
#X msg 308 273 0 743.009;
#X obj 418 95 pack 0 f;
#X obj 418 71 bng 15 250 50 0 empty empty empty 17 7 0 10 -262144 -1
-1;
#X obj 328 84 /;
#X floatatom 328 106 5 0 0 0 - - -, f 5;
#X obj 317 62 bng 15 250 50 0 empty empty empty 17 7 0 10 -262144 -1
-1;
#X msg 259 273 0.25 1;
#X obj 429 14 inlet;
#X obj 309 181 bng 15 250 50 0 empty empty empty 17 7 0 10 -262144
-1 -1;
#X obj 418 121 list prepend;
#X obj 418 145 list trim;
#X obj 77 362 throw~ \$0-out_A;
#X obj 115 23 r \$0-Oct_A;
#X obj 187 23 r \$0-para1_A;
#X obj 269 23 r \$0-para2_A;
#X obj 348 23 r \$0-para3_A;
#X obj 463 36 r \$0-Release_A;
#X obj 146 273 r \$0-keyOn;
#X obj 131 300 *~;
#X connect 0 0 1 0;
#X connect 0 0 9 0;
#X connect 1 0 4 0;
#X connect 1 0 5 0;
#X connect 2 0 14 0;
#X connect 3 0 4 1;
#X connect 4 0 13 0;
#X connect 5 0 2 0;
#X connect 6 0 7 1;
#X connect 7 0 35 0;
#X connect 8 0 3 1;
#X connect 9 0 15 0;
#X connect 9 0 23 0;
#X connect 10 0 11 0;
#X connect 11 0 0 0;
#X connect 12 0 11 1;
#X connect 13 0 7 0;
#X connect 14 0 3 0;
#X connect 15 0 16 0;
#X connect 16 0 8 0;
#X connect 17 0 6 0;
#X connect 18 0 26 0;
#X connect 19 0 18 0;
#X connect 20 0 21 0;
#X connect 21 0 15 3;
#X connect 22 0 20 0;
#X connect 23 0 6 0;
#X connect 24 0 25 0;
#X connect 25 0 17 0;
#X connect 26 0 27 0;
#X connect 27 0 17 0;
#X connect 29 0 12 0;
#X connect 30 0 15 1;
#X connect 31 0 15 2;
#X connect 32 0 20 1;
#X connect 32 0 22 0;
#X connect 33 0 18 1;
#X connect 33 0 19 0;
#X connect 33 0 20 0;
#X connect 34 0 35 1;
#X connect 35 0 28 0;
#X restore 189 295 pd snd_A;
#N canvas 176 50 584 412 snd_A 0;
#X obj 77 80 mtof;
#X floatatom 77 103 5 0 0 0 - - -, f 5;
#X floatatom 101 162 5 0 0 0 - - -, f 5;
#X obj 101 229 *~;
#X obj 77 259 +~;
#X obj 101 139 * 2;
#X obj 258 306 line~;
#X obj 77 327 *~;
#X obj 136 205 line~;
#X obj 258 154 bng 15 250 50 0 empty empty empty 17 7 0 10 -262144
-1 -1;
#X obj 77 13 inlet;
#X obj 77 55 +;
#X obj 115 44 * 12;
#X obj 77 299 osc~;
#X obj 101 204 osc~;
#X obj 226 125 pack f f f f;
#X msg 155 183 \$2 \, \$3 \$4;
#X msg 308 273 0 743.009;
#X obj 418 95 pack 0 f;
#X obj 418 71 bng 15 250 50 0 empty empty empty 17 7 0 10 -262144 -1
-1;
#X obj 328 84 /;
#X floatatom 328 106 5 0 0 0 - - -, f 5;
#X obj 317 62 bng 15 250 50 0 empty empty empty 17 7 0 10 -262144 -1
-1;
#X msg 259 273 0.25 1;
#X obj 429 14 inlet;
#X obj 309 181 bng 15 250 50 0 empty empty empty 17 7 0 10 -262144
-1 -1;
#X obj 418 121 list prepend;
#X obj 418 145 list trim;
#X obj 77 362 throw~ \$0-out_A;
#X obj 115 23 r \$0-Oct_A;
#X obj 187 23 r \$0-para1_A;
#X obj 269 23 r \$0-para2_A;
#X obj 348 23 r \$0-para3_A;
#X obj 463 36 r \$0-Release_A;
#X obj 146 273 r \$0-keyOn;
#X obj 131 300 *~;
#X connect 0 0 1 0;
#X connect 0 0 9 0;
#X connect 1 0 4 0;
#X connect 1 0 5 0;
#X connect 2 0 14 0;
#X connect 3 0 4 1;
#X connect 4 0 13 0;
#X connect 5 0 2 0;
#X connect 6 0 7 1;
#X connect 7 0 35 0;
#X connect 8 0 3 1;
#X connect 9 0 15 0;
#X connect 9 0 23 0;
#X connect 10 0 11 0;
#X connect 11 0 0 0;
#X connect 12 0 11 1;
#X connect 13 0 7 0;
#X connect 14 0 3 0;
#X connect 15 0 16 0;
#X connect 16 0 8 0;
#X connect 17 0 6 0;
#X connect 18 0 26 0;
#X connect 19 0 18 0;
#X connect 20 0 21 0;
#X connect 21 0 15 3;
#X connect 22 0 20 0;
#X connect 23 0 6 0;
#X connect 24 0 25 0;
#X connect 25 0 17 0;
#X connect 26 0 27 0;
#X connect 27 0 17 0;
#X connect 29 0 12 0;
#X connect 30 0 15 1;
#X connect 31 0 15 2;
#X connect 32 0 20 1;
#X connect 32 0 22 0;
#X connect 33 0 18 1;
#X connect 33 0 19 0;
#X connect 33 0 20 0;
#X connect 34 0 35 1;
#X connect 35 0 28 0;
#X restore 269 295 pd snd_A;
#N canvas 176 50 584 412 snd_A 0;
#X obj 77 80 mtof;
#X floatatom 77 103 5 0 0 0 - - -, f 5;
#X floatatom 101 162 5 0 0 0 - - -, f 5;
#X obj 101 229 *~;
#X obj 77 259 +~;
#X obj 101 139 * 2;
#X obj 258 306 line~;
#X obj 77 327 *~;
#X obj 136 205 line~;
#X obj 258 154 bng 15 250 50 0 empty empty empty 17 7 0 10 -262144
-1 -1;
#X obj 77 13 inlet;
#X obj 77 55 +;
#X obj 115 44 * 12;
#X obj 77 299 osc~;
#X obj 101 204 osc~;
#X obj 226 125 pack f f f f;
#X msg 155 183 \$2 \, \$3 \$4;
#X msg 308 273 0 743.009;
#X obj 418 95 pack 0 f;
#X obj 418 71 bng 15 250 50 0 empty empty empty 17 7 0 10 -262144 -1
-1;
#X obj 328 84 /;
#X floatatom 328 106 5 0 0 0 - - -, f 5;
#X obj 317 62 bng 15 250 50 0 empty empty empty 17 7 0 10 -262144 -1
-1;
#X msg 259 273 0.25 1;
#X obj 429 14 inlet;
#X obj 309 181 bng 15 250 50 0 empty empty empty 17 7 0 10 -262144
-1 -1;
#X obj 418 121 list prepend;
#X obj 418 145 list trim;
#X obj 77 362 throw~ \$0-out_A;
#X obj 115 23 r \$0-Oct_A;
#X obj 187 23 r \$0-para1_A;
#X obj 269 23 r \$0-para2_A;
#X obj 348 23 r \$0-para3_A;
#X obj 463 36 r \$0-Release_A;
#X obj 146 273 r \$0-keyOn;
#X obj 131 300 *~;
#X connect 0 0 1 0;
#X connect 0 0 9 0;
#X connect 1 0 4 0;
#X connect 1 0 5 0;
#X connect 2 0 14 0;
#X connect 3 0 4 1;
#X connect 4 0 13 0;
#X connect 5 0 2 0;
#X connect 6 0 7 1;
#X connect 7 0 35 0;
#X connect 8 0 3 1;
#X connect 9 0 15 0;
#X connect 9 0 23 0;
#X connect 10 0 11 0;
#X connect 11 0 0 0;
#X connect 12 0 11 1;
#X connect 13 0 7 0;
#X connect 14 0 3 0;
#X connect 15 0 16 0;
#X connect 16 0 8 0;
#X connect 17 0 6 0;
#X connect 18 0 26 0;
#X connect 19 0 18 0;
#X connect 20 0 21 0;
#X connect 21 0 15 3;
#X connect 22 0 20 0;
#X connect 23 0 6 0;
#X connect 24 0 25 0;
#X connect 25 0 17 0;
#X connect 26 0 27 0;
#X connect 27 0 17 0;
#X connect 29 0 12 0;
#X connect 30 0 15 1;
#X connect 31 0 15 2;
#X connect 32 0 20 1;
#X connect 32 0 22 0;
#X connect 33 0 18 1;
#X connect 33 0 19 0;
#X connect 33 0 20 0;
#X connect 34 0 35 1;
#X connect 35 0 28 0;
#X restore 349 295 pd snd_A;
#N canvas 176 50 584 412 snd_A 0;
#X obj 77 80 mtof;
#X floatatom 77 103 5 0 0 0 - - -, f 5;
#X floatatom 101 162 5 0 0 0 - - -, f 5;
#X obj 101 229 *~;
#X obj 77 259 +~;
#X obj 101 139 * 2;
#X obj 258 306 line~;
#X obj 77 327 *~;
#X obj 136 205 line~;
#X obj 258 154 bng 15 250 50 0 empty empty empty 17 7 0 10 -262144
-1 -1;
#X obj 77 13 inlet;
#X obj 77 55 +;
#X obj 115 44 * 12;
#X obj 77 299 osc~;
#X obj 101 204 osc~;
#X obj 226 125 pack f f f f;
#X msg 155 183 \$2 \, \$3 \$4;
#X msg 308 273 0 743.009;
#X obj 418 95 pack 0 f;
#X obj 418 71 bng 15 250 50 0 empty empty empty 17 7 0 10 -262144 -1
-1;
#X obj 328 84 /;
#X floatatom 328 106 5 0 0 0 - - -, f 5;
#X obj 317 62 bng 15 250 50 0 empty empty empty 17 7 0 10 -262144 -1
-1;
#X msg 259 273 0.25 1;
#X obj 429 14 inlet;
#X obj 309 181 bng 15 250 50 0 empty empty empty 17 7 0 10 -262144
-1 -1;
#X obj 418 121 list prepend;
#X obj 418 145 list trim;
#X obj 77 362 throw~ \$0-out_A;
#X obj 115 23 r \$0-Oct_A;
#X obj 187 23 r \$0-para1_A;
#X obj 269 23 r \$0-para2_A;
#X obj 348 23 r \$0-para3_A;
#X obj 463 36 r \$0-Release_A;
#X obj 146 273 r \$0-keyOn;
#X obj 131 300 *~;
#X connect 0 0 1 0;
#X connect 0 0 9 0;
#X connect 1 0 4 0;
#X connect 1 0 5 0;
#X connect 2 0 14 0;
#X connect 3 0 4 1;
#X connect 4 0 13 0;
#X connect 5 0 2 0;
#X connect 6 0 7 1;
#X connect 7 0 35 0;
#X connect 8 0 3 1;
#X connect 9 0 15 0;
#X connect 9 0 23 0;
#X connect 10 0 11 0;
#X connect 11 0 0 0;
#X connect 12 0 11 1;
#X connect 13 0 7 0;
#X connect 14 0 3 0;
#X connect 15 0 16 0;
#X connect 16 0 8 0;
#X connect 17 0 6 0;
#X connect 18 0 26 0;
#X connect 19 0 18 0;
#X connect 20 0 21 0;
#X connect 21 0 15 3;
#X connect 22 0 20 0;
#X connect 23 0 6 0;
#X connect 24 0 25 0;
#X connect 25 0 17 0;
#X connect 26 0 27 0;
#X connect 27 0 17 0;
#X connect 29 0 12 0;
#X connect 30 0 15 1;
#X connect 31 0 15 2;
#X connect 32 0 20 1;
#X connect 32 0 22 0;
#X connect 33 0 18 1;
#X connect 33 0 19 0;
#X connect 33 0 20 0;
#X connect 34 0 35 1;
#X connect 35 0 28 0;
#X restore 429 295 pd snd_A;
#N canvas 176 50 584 412 snd_A 0;
#X obj 77 80 mtof;
#X floatatom 77 103 5 0 0 0 - - -, f 5;
#X floatatom 101 162 5 0 0 0 - - -, f 5;
#X obj 101 229 *~;
#X obj 77 259 +~;
#X obj 101 139 * 2;
#X obj 258 306 line~;
#X obj 77 327 *~;
#X obj 136 205 line~;
#X obj 258 154 bng 15 250 50 0 empty empty empty 17 7 0 10 -262144
-1 -1;
#X obj 77 13 inlet;
#X obj 77 55 +;
#X obj 115 44 * 12;
#X obj 77 299 osc~;
#X obj 101 204 osc~;
#X obj 226 125 pack f f f f;
#X msg 155 183 \$2 \, \$3 \$4;
#X msg 308 273 0 743.009;
#X obj 418 95 pack 0 f;
#X obj 418 71 bng 15 250 50 0 empty empty empty 17 7 0 10 -262144 -1
-1;
#X obj 328 84 /;
#X floatatom 328 106 5 0 0 0 - - -, f 5;
#X obj 317 62 bng 15 250 50 0 empty empty empty 17 7 0 10 -262144 -1
-1;
#X msg 259 273 0.25 1;
#X obj 429 14 inlet;
#X obj 309 181 bng 15 250 50 0 empty empty empty 17 7 0 10 -262144
-1 -1;
#X obj 418 121 list prepend;
#X obj 418 145 list trim;
#X obj 77 362 throw~ \$0-out_A;
#X obj 115 23 r \$0-Oct_A;
#X obj 187 23 r \$0-para1_A;
#X obj 269 23 r \$0-para2_A;
#X obj 348 23 r \$0-para3_A;
#X obj 463 36 r \$0-Release_A;
#X obj 146 273 r \$0-keyOn;
#X obj 131 300 *~;
#X connect 0 0 1 0;
#X connect 0 0 9 0;
#X connect 1 0 4 0;
#X connect 1 0 5 0;
#X connect 2 0 14 0;
#X connect 3 0 4 1;
#X connect 4 0 13 0;
#X connect 5 0 2 0;
#X connect 6 0 7 1;
#X connect 7 0 35 0;
#X connect 8 0 3 1;
#X connect 9 0 15 0;
#X connect 9 0 23 0;
#X connect 10 0 11 0;
#X connect 11 0 0 0;
#X connect 12 0 11 1;
#X connect 13 0 7 0;
#X connect 14 0 3 0;
#X connect 15 0 16 0;
#X connect 16 0 8 0;
#X connect 17 0 6 0;
#X connect 18 0 26 0;
#X connect 19 0 18 0;
#X connect 20 0 21 0;
#X connect 21 0 15 3;
#X connect 22 0 20 0;
#X connect 23 0 6 0;
#X connect 24 0 25 0;
#X connect 25 0 17 0;
#X connect 26 0 27 0;
#X connect 27 0 17 0;
#X connect 29 0 12 0;
#X connect 30 0 15 1;
#X connect 31 0 15 2;
#X connect 32 0 20 1;
#X connect 32 0 22 0;
#X connect 33 0 18 1;
#X connect 33 0 19 0;
#X connect 33 0 20 0;
#X connect 34 0 35 1;
#X connect 35 0 28 0;
#X restore 509 295 pd snd_A;
#N canvas 176 50 584 412 snd_A 0;
#X obj 77 80 mtof;
#X floatatom 77 103 5 0 0 0 - - -, f 5;
#X floatatom 101 162 5 0 0 0 - - -, f 5;
#X obj 101 229 *~;
#X obj 77 259 +~;
#X obj 101 139 * 2;
#X obj 258 306 line~;
#X obj 77 327 *~;
#X obj 136 205 line~;
#X obj 258 154 bng 15 250 50 0 empty empty empty 17 7 0 10 -262144
-1 -1;
#X obj 77 13 inlet;
#X obj 77 55 +;
#X obj 115 44 * 12;
#X obj 77 299 osc~;
#X obj 101 204 osc~;
#X obj 226 125 pack f f f f;
#X msg 155 183 \$2 \, \$3 \$4;
#X msg 308 273 0 743.009;
#X obj 418 95 pack 0 f;
#X obj 418 71 bng 15 250 50 0 empty empty empty 17 7 0 10 -262144 -1
-1;
#X obj 328 84 /;
#X floatatom 328 106 5 0 0 0 - - -, f 5;
#X obj 317 62 bng 15 250 50 0 empty empty empty 17 7 0 10 -262144 -1
-1;
#X msg 259 273 0.25 1;
#X obj 429 14 inlet;
#X obj 309 181 bng 15 250 50 0 empty empty empty 17 7 0 10 -262144
-1 -1;
#X obj 418 121 list prepend;
#X obj 418 145 list trim;
#X obj 77 362 throw~ \$0-out_A;
#X obj 115 23 r \$0-Oct_A;
#X obj 187 23 r \$0-para1_A;
#X obj 269 23 r \$0-para2_A;
#X obj 348 23 r \$0-para3_A;
#X obj 463 36 r \$0-Release_A;
#X obj 146 273 r \$0-keyOn;
#X obj 131 300 *~;
#X connect 0 0 1 0;
#X connect 0 0 9 0;
#X connect 1 0 4 0;
#X connect 1 0 5 0;
#X connect 2 0 14 0;
#X connect 3 0 4 1;
#X connect 4 0 13 0;
#X connect 5 0 2 0;
#X connect 6 0 7 1;
#X connect 7 0 35 0;
#X connect 8 0 3 1;
#X connect 9 0 15 0;
#X connect 9 0 23 0;
#X connect 10 0 11 0;
#X connect 11 0 0 0;
#X connect 12 0 11 1;
#X connect 13 0 7 0;
#X connect 14 0 3 0;
#X connect 15 0 16 0;
#X connect 16 0 8 0;
#X connect 17 0 6 0;
#X connect 18 0 26 0;
#X connect 19 0 18 0;
#X connect 20 0 21 0;
#X connect 21 0 15 3;
#X connect 22 0 20 0;
#X connect 23 0 6 0;
#X connect 24 0 25 0;
#X connect 25 0 17 0;
#X connect 26 0 27 0;
#X connect 27 0 17 0;
#X connect 29 0 12 0;
#X connect 30 0 15 1;
#X connect 31 0 15 2;
#X connect 32 0 20 1;
#X connect 32 0 22 0;
#X connect 33 0 18 1;
#X connect 33 0 19 0;
#X connect 33 0 20 0;
#X connect 34 0 35 1;
#X connect 35 0 28 0;
#X restore 589 295 pd snd_A;
#N canvas 176 50 584 412 snd_A 0;
#X obj 77 80 mtof;
#X floatatom 77 103 5 0 0 0 - - -, f 5;
#X floatatom 101 162 5 0 0 0 - - -, f 5;
#X obj 101 229 *~;
#X obj 77 259 +~;
#X obj 101 139 * 2;
#X obj 258 306 line~;
#X obj 77 327 *~;
#X obj 136 205 line~;
#X obj 258 154 bng 15 250 50 0 empty empty empty 17 7 0 10 -262144
-1 -1;
#X obj 77 13 inlet;
#X obj 77 55 +;
#X obj 115 44 * 12;
#X obj 77 299 osc~;
#X obj 101 204 osc~;
#X obj 226 125 pack f f f f;
#X msg 155 183 \$2 \, \$3 \$4;
#X msg 308 273 0 743.009;
#X obj 418 95 pack 0 f;
#X obj 418 71 bng 15 250 50 0 empty empty empty 17 7 0 10 -262144 -1
-1;
#X obj 328 84 /;
#X floatatom 328 106 5 0 0 0 - - -, f 5;
#X obj 317 62 bng 15 250 50 0 empty empty empty 17 7 0 10 -262144 -1
-1;
#X msg 259 273 0.25 1;
#X obj 429 14 inlet;
#X obj 309 181 bng 15 250 50 0 empty empty empty 17 7 0 10 -262144
-1 -1;
#X obj 418 121 list prepend;
#X obj 418 145 list trim;
#X obj 77 362 throw~ \$0-out_A;
#X obj 115 23 r \$0-Oct_A;
#X obj 187 23 r \$0-para1_A;
#X obj 269 23 r \$0-para2_A;
#X obj 348 23 r \$0-para3_A;
#X obj 463 36 r \$0-Release_A;
#X obj 146 273 r \$0-keyOn;
#X obj 131 300 *~;
#X connect 0 0 1 0;
#X connect 0 0 9 0;
#X connect 1 0 4 0;
#X connect 1 0 5 0;
#X connect 2 0 14 0;
#X connect 3 0 4 1;
#X connect 4 0 13 0;
#X connect 5 0 2 0;
#X connect 6 0 7 1;
#X connect 7 0 35 0;
#X connect 8 0 3 1;
#X connect 9 0 15 0;
#X connect 9 0 23 0;
#X connect 10 0 11 0;
#X connect 11 0 0 0;
#X connect 12 0 11 1;
#X connect 13 0 7 0;
#X connect 14 0 3 0;
#X connect 15 0 16 0;
#X connect 16 0 8 0;
#X connect 17 0 6 0;
#X connect 18 0 26 0;
#X connect 19 0 18 0;
#X connect 20 0 21 0;
#X connect 21 0 15 3;
#X connect 22 0 20 0;
#X connect 23 0 6 0;
#X connect 24 0 25 0;
#X connect 25 0 17 0;
#X connect 26 0 27 0;
#X connect 27 0 17 0;
#X connect 29 0 12 0;
#X connect 30 0 15 1;
#X connect 31 0 15 2;
#X connect 32 0 20 1;
#X connect 32 0 22 0;
#X connect 33 0 18 1;
#X connect 33 0 19 0;
#X connect 33 0 20 0;
#X connect 34 0 35 1;
#X connect 35 0 28 0;
#X restore 669 295 pd snd_A;
#N canvas 176 50 584 412 snd_A 0;
#X obj 77 80 mtof;
#X floatatom 77 103 5 0 0 0 - - -, f 5;
#X floatatom 101 162 5 0 0 0 - - -, f 5;
#X obj 101 229 *~;
#X obj 77 259 +~;
#X obj 101 139 * 2;
#X obj 258 306 line~;
#X obj 77 327 *~;
#X obj 136 205 line~;
#X obj 258 154 bng 15 250 50 0 empty empty empty 17 7 0 10 -262144
-1 -1;
#X obj 77 13 inlet;
#X obj 77 55 +;
#X obj 115 44 * 12;
#X obj 77 299 osc~;
#X obj 101 204 osc~;
#X obj 226 125 pack f f f f;
#X msg 155 183 \$2 \, \$3 \$4;
#X msg 308 273 0 743.009;
#X obj 418 95 pack 0 f;
#X obj 418 71 bng 15 250 50 0 empty empty empty 17 7 0 10 -262144 -1
-1;
#X obj 328 84 /;
#X floatatom 328 106 5 0 0 0 - - -, f 5;
#X obj 317 62 bng 15 250 50 0 empty empty empty 17 7 0 10 -262144 -1
-1;
#X msg 259 273 0.25 1;
#X obj 429 14 inlet;
#X obj 309 181 bng 15 250 50 0 empty empty empty 17 7 0 10 -262144
-1 -1;
#X obj 418 121 list prepend;
#X obj 418 145 list trim;
#X obj 77 362 throw~ \$0-out_A;
#X obj 115 23 r \$0-Oct_A;
#X obj 187 23 r \$0-para1_A;
#X obj 269 23 r \$0-para2_A;
#X obj 348 23 r \$0-para3_A;
#X obj 463 36 r \$0-Release_A;
#X obj 146 273 r \$0-keyOn;
#X obj 131 300 *~;
#X connect 0 0 1 0;
#X connect 0 0 9 0;
#X connect 1 0 4 0;
#X connect 1 0 5 0;
#X connect 2 0 14 0;
#X connect 3 0 4 1;
#X connect 4 0 13 0;
#X connect 5 0 2 0;
#X connect 6 0 7 1;
#X connect 7 0 35 0;
#X connect 8 0 3 1;
#X connect 9 0 15 0;
#X connect 9 0 23 0;
#X connect 10 0 11 0;
#X connect 11 0 0 0;
#X connect 12 0 11 1;
#X connect 13 0 7 0;
#X connect 14 0 3 0;
#X connect 15 0 16 0;
#X connect 16 0 8 0;
#X connect 17 0 6 0;
#X connect 18 0 26 0;
#X connect 19 0 18 0;
#X connect 20 0 21 0;
#X connect 21 0 15 3;
#X connect 22 0 20 0;
#X connect 23 0 6 0;
#X connect 24 0 25 0;
#X connect 25 0 17 0;
#X connect 26 0 27 0;
#X connect 27 0 17 0;
#X connect 29 0 12 0;
#X connect 30 0 15 1;
#X connect 31 0 15 2;
#X connect 32 0 20 1;
#X connect 32 0 22 0;
#X connect 33 0 18 1;
#X connect 33 0 19 0;
#X connect 33 0 20 0;
#X connect 34 0 35 1;
#X connect 35 0 28 0;
#X restore 749 295 pd snd_A;
#N canvas 176 50 584 412 snd_A 0;
#X obj 77 80 mtof;
#X floatatom 77 103 5 0 0 0 - - -, f 5;
#X floatatom 101 162 5 0 0 0 - - -, f 5;
#X obj 101 229 *~;
#X obj 77 259 +~;
#X obj 101 139 * 2;
#X obj 258 306 line~;
#X obj 77 327 *~;
#X obj 136 205 line~;
#X obj 258 154 bng 15 250 50 0 empty empty empty 17 7 0 10 -262144
-1 -1;
#X obj 77 13 inlet;
#X obj 77 55 +;
#X obj 115 44 * 12;
#X obj 77 299 osc~;
#X obj 101 204 osc~;
#X obj 226 125 pack f f f f;
#X msg 155 183 \$2 \, \$3 \$4;
#X msg 308 273 0 743.009;
#X obj 418 95 pack 0 f;
#X obj 418 71 bng 15 250 50 0 empty empty empty 17 7 0 10 -262144 -1
-1;
#X obj 328 84 /;
#X floatatom 328 106 5 0 0 0 - - -, f 5;
#X obj 317 62 bng 15 250 50 0 empty empty empty 17 7 0 10 -262144 -1
-1;
#X msg 259 273 0.25 1;
#X obj 429 14 inlet;
#X obj 309 181 bng 15 250 50 0 empty empty empty 17 7 0 10 -262144
-1 -1;
#X obj 418 121 list prepend;
#X obj 418 145 list trim;
#X obj 77 362 throw~ \$0-out_A;
#X obj 115 23 r \$0-Oct_A;
#X obj 187 23 r \$0-para1_A;
#X obj 269 23 r \$0-para2_A;
#X obj 348 23 r \$0-para3_A;
#X obj 463 36 r \$0-Release_A;
#X obj 146 273 r \$0-keyOn;
#X obj 131 300 *~;
#X connect 0 0 1 0;
#X connect 0 0 9 0;
#X connect 1 0 4 0;
#X connect 1 0 5 0;
#X connect 2 0 14 0;
#X connect 3 0 4 1;
#X connect 4 0 13 0;
#X connect 5 0 2 0;
#X connect 6 0 7 1;
#X connect 7 0 35 0;
#X connect 8 0 3 1;
#X connect 9 0 15 0;
#X connect 9 0 23 0;
#X connect 10 0 11 0;
#X connect 11 0 0 0;
#X connect 12 0 11 1;
#X connect 13 0 7 0;
#X connect 14 0 3 0;
#X connect 15 0 16 0;
#X connect 16 0 8 0;
#X connect 17 0 6 0;
#X connect 18 0 26 0;
#X connect 19 0 18 0;
#X connect 20 0 21 0;
#X connect 21 0 15 3;
#X connect 22 0 20 0;
#X connect 23 0 6 0;
#X connect 24 0 25 0;
#X connect 25 0 17 0;
#X connect 26 0 27 0;
#X connect 27 0 17 0;
#X connect 29 0 12 0;
#X connect 30 0 15 1;
#X connect 31 0 15 2;
#X connect 32 0 20 1;
#X connect 32 0 22 0;
#X connect 33 0 18 1;
#X connect 33 0 19 0;
#X connect 33 0 20 0;
#X connect 34 0 35 1;
#X connect 35 0 28 0;
#X restore 89 205 pd snd_A;
#N canvas 176 50 584 412 snd_A 0;
#X obj 77 80 mtof;
#X floatatom 77 103 5 0 0 0 - - -, f 5;
#X floatatom 101 162 5 0 0 0 - - -, f 5;
#X obj 101 229 *~;
#X obj 77 259 +~;
#X obj 101 139 * 2;
#X obj 258 306 line~;
#X obj 77 327 *~;
#X obj 136 205 line~;
#X obj 258 154 bng 15 250 50 0 empty empty empty 17 7 0 10 -262144
-1 -1;
#X obj 77 13 inlet;
#X obj 77 55 +;
#X obj 115 44 * 12;
#X obj 77 299 osc~;
#X obj 101 204 osc~;
#X obj 226 125 pack f f f f;
#X msg 155 183 \$2 \, \$3 \$4;
#X msg 308 273 0 743.009;
#X obj 418 95 pack 0 f;
#X obj 418 71 bng 15 250 50 0 empty empty empty 17 7 0 10 -262144 -1
-1;
#X obj 328 84 /;
#X floatatom 328 106 5 0 0 0 - - -, f 5;
#X obj 317 62 bng 15 250 50 0 empty empty empty 17 7 0 10 -262144 -1
-1;
#X msg 259 273 0.25 1;
#X obj 429 14 inlet;
#X obj 309 181 bng 15 250 50 0 empty empty empty 17 7 0 10 -262144
-1 -1;
#X obj 418 121 list prepend;
#X obj 418 145 list trim;
#X obj 77 362 throw~ \$0-out_A;
#X obj 115 23 r \$0-Oct_A;
#X obj 187 23 r \$0-para1_A;
#X obj 269 23 r \$0-para2_A;
#X obj 348 23 r \$0-para3_A;
#X obj 463 36 r \$0-Release_A;
#X obj 146 273 r \$0-keyOn;
#X obj 131 300 *~;
#X connect 0 0 1 0;
#X connect 0 0 9 0;
#X connect 1 0 4 0;
#X connect 1 0 5 0;
#X connect 2 0 14 0;
#X connect 3 0 4 1;
#X connect 4 0 13 0;
#X connect 5 0 2 0;
#X connect 6 0 7 1;
#X connect 7 0 35 0;
#X connect 8 0 3 1;
#X connect 9 0 15 0;
#X connect 9 0 23 0;
#X connect 10 0 11 0;
#X connect 11 0 0 0;
#X connect 12 0 11 1;
#X connect 13 0 7 0;
#X connect 14 0 3 0;
#X connect 15 0 16 0;
#X connect 16 0 8 0;
#X connect 17 0 6 0;
#X connect 18 0 26 0;
#X connect 19 0 18 0;
#X connect 20 0 21 0;
#X connect 21 0 15 3;
#X connect 22 0 20 0;
#X connect 23 0 6 0;
#X connect 24 0 25 0;
#X connect 25 0 17 0;
#X connect 26 0 27 0;
#X connect 27 0 17 0;
#X connect 29 0 12 0;
#X connect 30 0 15 1;
#X connect 31 0 15 2;
#X connect 32 0 20 1;
#X connect 32 0 22 0;
#X connect 33 0 18 1;
#X connect 33 0 19 0;
#X connect 33 0 20 0;
#X connect 34 0 35 1;
#X connect 35 0 28 0;
#X restore 169 205 pd snd_A;
#N canvas 176 50 584 412 snd_A 0;
#X obj 77 80 mtof;
#X floatatom 77 103 5 0 0 0 - - -, f 5;
#X floatatom 101 162 5 0 0 0 - - -, f 5;
#X obj 101 229 *~;
#X obj 77 259 +~;
#X obj 101 139 * 2;
#X obj 258 306 line~;
#X obj 77 327 *~;
#X obj 136 205 line~;
#X obj 258 154 bng 15 250 50 0 empty empty empty 17 7 0 10 -262144
-1 -1;
#X obj 77 13 inlet;
#X obj 77 55 +;
#X obj 115 44 * 12;
#X obj 77 299 osc~;
#X obj 101 204 osc~;
#X obj 226 125 pack f f f f;
#X msg 155 183 \$2 \, \$3 \$4;
#X msg 308 273 0 743.009;
#X obj 418 95 pack 0 f;
#X obj 418 71 bng 15 250 50 0 empty empty empty 17 7 0 10 -262144 -1
-1;
#X obj 328 84 /;
#X floatatom 328 106 5 0 0 0 - - -, f 5;
#X obj 317 62 bng 15 250 50 0 empty empty empty 17 7 0 10 -262144 -1
-1;
#X msg 259 273 0.25 1;
#X obj 429 14 inlet;
#X obj 309 181 bng 15 250 50 0 empty empty empty 17 7 0 10 -262144
-1 -1;
#X obj 418 121 list prepend;
#X obj 418 145 list trim;
#X obj 77 362 throw~ \$0-out_A;
#X obj 115 23 r \$0-Oct_A;
#X obj 187 23 r \$0-para1_A;
#X obj 269 23 r \$0-para2_A;
#X obj 348 23 r \$0-para3_A;
#X obj 463 36 r \$0-Release_A;
#X obj 146 273 r \$0-keyOn;
#X obj 131 300 *~;
#X connect 0 0 1 0;
#X connect 0 0 9 0;
#X connect 1 0 4 0;
#X connect 1 0 5 0;
#X connect 2 0 14 0;
#X connect 3 0 4 1;
#X connect 4 0 13 0;
#X connect 5 0 2 0;
#X connect 6 0 7 1;
#X connect 7 0 35 0;
#X connect 8 0 3 1;
#X connect 9 0 15 0;
#X connect 9 0 23 0;
#X connect 10 0 11 0;
#X connect 11 0 0 0;
#X connect 12 0 11 1;
#X connect 13 0 7 0;
#X connect 14 0 3 0;
#X connect 15 0 16 0;
#X connect 16 0 8 0;
#X connect 17 0 6 0;
#X connect 18 0 26 0;
#X connect 19 0 18 0;
#X connect 20 0 21 0;
#X connect 21 0 15 3;
#X connect 22 0 20 0;
#X connect 23 0 6 0;
#X connect 24 0 25 0;
#X connect 25 0 17 0;
#X connect 26 0 27 0;
#X connect 27 0 17 0;
#X connect 29 0 12 0;
#X connect 30 0 15 1;
#X connect 31 0 15 2;
#X connect 32 0 20 1;
#X connect 32 0 22 0;
#X connect 33 0 18 1;
#X connect 33 0 19 0;
#X connect 33 0 20 0;
#X connect 34 0 35 1;
#X connect 35 0 28 0;
#X restore 319 205 pd snd_A;
#N canvas 176 50 584 412 snd_A 0;
#X obj 77 80 mtof;
#X floatatom 77 103 5 0 0 0 - - -, f 5;
#X floatatom 101 162 5 0 0 0 - - -, f 5;
#X obj 101 229 *~;
#X obj 77 259 +~;
#X obj 101 139 * 2;
#X obj 258 306 line~;
#X obj 77 327 *~;
#X obj 136 205 line~;
#X obj 258 154 bng 15 250 50 0 empty empty empty 17 7 0 10 -262144
-1 -1;
#X obj 77 13 inlet;
#X obj 77 55 +;
#X obj 115 44 * 12;
#X obj 77 299 osc~;
#X obj 101 204 osc~;
#X obj 226 125 pack f f f f;
#X msg 155 183 \$2 \, \$3 \$4;
#X msg 308 273 0 743.009;
#X obj 418 95 pack 0 f;
#X obj 418 71 bng 15 250 50 0 empty empty empty 17 7 0 10 -262144 -1
-1;
#X obj 328 84 /;
#X floatatom 328 106 5 0 0 0 - - -, f 5;
#X obj 317 62 bng 15 250 50 0 empty empty empty 17 7 0 10 -262144 -1
-1;
#X msg 259 273 0.25 1;
#X obj 429 14 inlet;
#X obj 309 181 bng 15 250 50 0 empty empty empty 17 7 0 10 -262144
-1 -1;
#X obj 418 121 list prepend;
#X obj 418 145 list trim;
#X obj 77 362 throw~ \$0-out_A;
#X obj 115 23 r \$0-Oct_A;
#X obj 187 23 r \$0-para1_A;
#X obj 269 23 r \$0-para2_A;
#X obj 348 23 r \$0-para3_A;
#X obj 463 36 r \$0-Release_A;
#X obj 146 273 r \$0-keyOn;
#X obj 131 300 *~;
#X connect 0 0 1 0;
#X connect 0 0 9 0;
#X connect 1 0 4 0;
#X connect 1 0 5 0;
#X connect 2 0 14 0;
#X connect 3 0 4 1;
#X connect 4 0 13 0;
#X connect 5 0 2 0;
#X connect 6 0 7 1;
#X connect 7 0 35 0;
#X connect 8 0 3 1;
#X connect 9 0 15 0;
#X connect 9 0 23 0;
#X connect 10 0 11 0;
#X connect 11 0 0 0;
#X connect 12 0 11 1;
#X connect 13 0 7 0;
#X connect 14 0 3 0;
#X connect 15 0 16 0;
#X connect 16 0 8 0;
#X connect 17 0 6 0;
#X connect 18 0 26 0;
#X connect 19 0 18 0;
#X connect 20 0 21 0;
#X connect 21 0 15 3;
#X connect 22 0 20 0;
#X connect 23 0 6 0;
#X connect 24 0 25 0;
#X connect 25 0 17 0;
#X connect 26 0 27 0;
#X connect 27 0 17 0;
#X connect 29 0 12 0;
#X connect 30 0 15 1;
#X connect 31 0 15 2;
#X connect 32 0 20 1;
#X connect 32 0 22 0;
#X connect 33 0 18 1;
#X connect 33 0 19 0;
#X connect 33 0 20 0;
#X connect 34 0 35 1;
#X connect 35 0 28 0;
#X restore 399 205 pd snd_A;
#N canvas 176 50 584 412 snd_A 0;
#X obj 77 80 mtof;
#X floatatom 77 103 5 0 0 0 - - -, f 5;
#X floatatom 101 162 5 0 0 0 - - -, f 5;
#X obj 101 229 *~;
#X obj 77 259 +~;
#X obj 101 139 * 2;
#X obj 258 306 line~;
#X obj 77 327 *~;
#X obj 136 205 line~;
#X obj 258 154 bng 15 250 50 0 empty empty empty 17 7 0 10 -262144
-1 -1;
#X obj 77 13 inlet;
#X obj 77 55 +;
#X obj 115 44 * 12;
#X obj 77 299 osc~;
#X obj 101 204 osc~;
#X obj 226 125 pack f f f f;
#X msg 155 183 \$2 \, \$3 \$4;
#X msg 308 273 0 743.009;
#X obj 418 95 pack 0 f;
#X obj 418 71 bng 15 250 50 0 empty empty empty 17 7 0 10 -262144 -1
-1;
#X obj 328 84 /;
#X floatatom 328 106 5 0 0 0 - - -, f 5;
#X obj 317 62 bng 15 250 50 0 empty empty empty 17 7 0 10 -262144 -1
-1;
#X msg 259 273 0.25 1;
#X obj 429 14 inlet;
#X obj 309 181 bng 15 250 50 0 empty empty empty 17 7 0 10 -262144
-1 -1;
#X obj 418 121 list prepend;
#X obj 418 145 list trim;
#X obj 77 362 throw~ \$0-out_A;
#X obj 115 23 r \$0-Oct_A;
#X obj 187 23 r \$0-para1_A;
#X obj 269 23 r \$0-para2_A;
#X obj 348 23 r \$0-para3_A;
#X obj 463 36 r \$0-Release_A;
#X obj 146 273 r \$0-keyOn;
#X obj 131 300 *~;
#X connect 0 0 1 0;
#X connect 0 0 9 0;
#X connect 1 0 4 0;
#X connect 1 0 5 0;
#X connect 2 0 14 0;
#X connect 3 0 4 1;
#X connect 4 0 13 0;
#X connect 5 0 2 0;
#X connect 6 0 7 1;
#X connect 7 0 35 0;
#X connect 8 0 3 1;
#X connect 9 0 15 0;
#X connect 9 0 23 0;
#X connect 10 0 11 0;
#X connect 11 0 0 0;
#X connect 12 0 11 1;
#X connect 13 0 7 0;
#X connect 14 0 3 0;
#X connect 15 0 16 0;
#X connect 16 0 8 0;
#X connect 17 0 6 0;
#X connect 18 0 26 0;
#X connect 19 0 18 0;
#X connect 20 0 21 0;
#X connect 21 0 15 3;
#X connect 22 0 20 0;
#X connect 23 0 6 0;
#X connect 24 0 25 0;
#X connect 25 0 17 0;
#X connect 26 0 27 0;
#X connect 27 0 17 0;
#X connect 29 0 12 0;
#X connect 30 0 15 1;
#X connect 31 0 15 2;
#X connect 32 0 20 1;
#X connect 32 0 22 0;
#X connect 33 0 18 1;
#X connect 33 0 19 0;
#X connect 33 0 20 0;
#X connect 34 0 35 1;
#X connect 35 0 28 0;
#X restore 479 205 pd snd_A;
#N canvas 176 50 584 412 snd_A 0;
#X obj 77 80 mtof;
#X floatatom 77 103 5 0 0 0 - - -, f 5;
#X floatatom 101 162 5 0 0 0 - - -, f 5;
#X obj 101 229 *~;
#X obj 77 259 +~;
#X obj 101 139 * 2;
#X obj 258 306 line~;
#X obj 77 327 *~;
#X obj 136 205 line~;
#X obj 258 154 bng 15 250 50 0 empty empty empty 17 7 0 10 -262144
-1 -1;
#X obj 77 13 inlet;
#X obj 77 55 +;
#X obj 115 44 * 12;
#X obj 77 299 osc~;
#X obj 101 204 osc~;
#X obj 226 125 pack f f f f;
#X msg 155 183 \$2 \, \$3 \$4;
#X msg 308 273 0 743.009;
#X obj 418 95 pack 0 f;
#X obj 418 71 bng 15 250 50 0 empty empty empty 17 7 0 10 -262144 -1
-1;
#X obj 328 84 /;
#X floatatom 328 106 5 0 0 0 - - -, f 5;
#X obj 317 62 bng 15 250 50 0 empty empty empty 17 7 0 10 -262144 -1
-1;
#X msg 259 273 0.25 1;
#X obj 429 14 inlet;
#X obj 309 181 bng 15 250 50 0 empty empty empty 17 7 0 10 -262144
-1 -1;
#X obj 418 121 list prepend;
#X obj 418 145 list trim;
#X obj 77 362 throw~ \$0-out_A;
#X obj 115 23 r \$0-Oct_A;
#X obj 187 23 r \$0-para1_A;
#X obj 269 23 r \$0-para2_A;
#X obj 348 23 r \$0-para3_A;
#X obj 463 36 r \$0-Release_A;
#X obj 146 273 r \$0-keyOn;
#X obj 131 300 *~;
#X connect 0 0 1 0;
#X connect 0 0 9 0;
#X connect 1 0 4 0;
#X connect 1 0 5 0;
#X connect 2 0 14 0;
#X connect 3 0 4 1;
#X connect 4 0 13 0;
#X connect 5 0 2 0;
#X connect 6 0 7 1;
#X connect 7 0 35 0;
#X connect 8 0 3 1;
#X connect 9 0 15 0;
#X connect 9 0 23 0;
#X connect 10 0 11 0;
#X connect 11 0 0 0;
#X connect 12 0 11 1;
#X connect 13 0 7 0;
#X connect 14 0 3 0;
#X connect 15 0 16 0;
#X connect 16 0 8 0;
#X connect 17 0 6 0;
#X connect 18 0 26 0;
#X connect 19 0 18 0;
#X connect 20 0 21 0;
#X connect 21 0 15 3;
#X connect 22 0 20 0;
#X connect 23 0 6 0;
#X connect 24 0 25 0;
#X connect 25 0 17 0;
#X connect 26 0 27 0;
#X connect 27 0 17 0;
#X connect 29 0 12 0;
#X connect 30 0 15 1;
#X connect 31 0 15 2;
#X connect 32 0 20 1;
#X connect 32 0 22 0;
#X connect 33 0 18 1;
#X connect 33 0 19 0;
#X connect 33 0 20 0;
#X connect 34 0 35 1;
#X connect 35 0 28 0;
#X restore 619 205 pd snd_A;
#N canvas 176 50 584 412 snd_A 0;
#X obj 77 80 mtof;
#X floatatom 77 103 5 0 0 0 - - -, f 5;
#X floatatom 101 162 5 0 0 0 - - -, f 5;
#X obj 101 229 *~;
#X obj 77 259 +~;
#X obj 101 139 * 2;
#X obj 258 306 line~;
#X obj 77 327 *~;
#X obj 136 205 line~;
#X obj 258 154 bng 15 250 50 0 empty empty empty 17 7 0 10 -262144
-1 -1;
#X obj 77 13 inlet;
#X obj 77 55 +;
#X obj 115 44 * 12;
#X obj 77 299 osc~;
#X obj 101 204 osc~;
#X obj 226 125 pack f f f f;
#X msg 155 183 \$2 \, \$3 \$4;
#X msg 308 273 0 743.009;
#X obj 418 95 pack 0 f;
#X obj 418 71 bng 15 250 50 0 empty empty empty 17 7 0 10 -262144 -1
-1;
#X obj 328 84 /;
#X floatatom 328 106 5 0 0 0 - - -, f 5;
#X obj 317 62 bng 15 250 50 0 empty empty empty 17 7 0 10 -262144 -1
-1;
#X msg 259 273 0.25 1;
#X obj 429 14 inlet;
#X obj 309 181 bng 15 250 50 0 empty empty empty 17 7 0 10 -262144
-1 -1;
#X obj 418 121 list prepend;
#X obj 418 145 list trim;
#X obj 77 362 throw~ \$0-out_A;
#X obj 115 23 r \$0-Oct_A;
#X obj 187 23 r \$0-para1_A;
#X obj 269 23 r \$0-para2_A;
#X obj 348 23 r \$0-para3_A;
#X obj 463 36 r \$0-Release_A;
#X obj 146 273 r \$0-keyOn;
#X obj 131 300 *~;
#X connect 0 0 1 0;
#X connect 0 0 9 0;
#X connect 1 0 4 0;
#X connect 1 0 5 0;
#X connect 2 0 14 0;
#X connect 3 0 4 1;
#X connect 4 0 13 0;
#X connect 5 0 2 0;
#X connect 6 0 7 1;
#X connect 7 0 35 0;
#X connect 8 0 3 1;
#X connect 9 0 15 0;
#X connect 9 0 23 0;
#X connect 10 0 11 0;
#X connect 11 0 0 0;
#X connect 12 0 11 1;
#X connect 13 0 7 0;
#X connect 14 0 3 0;
#X connect 15 0 16 0;
#X connect 16 0 8 0;
#X connect 17 0 6 0;
#X connect 18 0 26 0;
#X connect 19 0 18 0;
#X connect 20 0 21 0;
#X connect 21 0 15 3;
#X connect 22 0 20 0;
#X connect 23 0 6 0;
#X connect 24 0 25 0;
#X connect 25 0 17 0;
#X connect 26 0 27 0;
#X connect 27 0 17 0;
#X connect 29 0 12 0;
#X connect 30 0 15 1;
#X connect 31 0 15 2;
#X connect 32 0 20 1;
#X connect 32 0 22 0;
#X connect 33 0 18 1;
#X connect 33 0 19 0;
#X connect 33 0 20 0;
#X connect 34 0 35 1;
#X connect 35 0 28 0;
#X restore 699 205 pd snd_A;
#X obj 82 58 inlet;
#X obj 82 79 s \$0-keyOn;
#X connect 1 0 2 0;
#X connect 3 0 1 0;
#X connect 3 1 2 1;
#X connect 4 0 36 0;
#X connect 5 0 4 0;
#X connect 5 1 36 1;
#X connect 6 0 7 0;
#X connect 6 1 37 1;
#X connect 7 0 37 0;
#X connect 8 0 9 0;
#X connect 8 1 38 1;
#X connect 9 0 38 0;
#X connect 10 0 11 0;
#X connect 10 1 39 1;
#X connect 11 0 39 0;
#X connect 12 0 13 0;
#X connect 12 1 40 1;
#X connect 13 0 40 0;
#X connect 14 0 15 0;
#X connect 14 1 41 1;
#X connect 15 0 41 0;
#X connect 16 0 17 0;
#X connect 16 1 42 1;
#X connect 17 0 42 0;
#X connect 18 0 19 0;
#X connect 18 1 43 1;
#X connect 19 0 43 0;
#X connect 20 0 21 0;
#X connect 20 1 44 1;
#X connect 21 0 44 0;
#X connect 22 0 23 0;
#X connect 22 1 45 1;
#X connect 23 0 45 0;
#X connect 24 0 25 0;
#X connect 24 1 46 1;
#X connect 25 0 46 0;
#X connect 26 0 27 0;
#X connect 26 1 47 1;
#X connect 27 0 47 0;
#X connect 28 0 29 0;
#X connect 28 1 48 1;
#X connect 29 0 48 0;
#X connect 30 0 31 0;
#X connect 30 1 49 1;
#X connect 31 0 49 0;
#X connect 32 0 50 0;
#X connect 33 0 32 0;
#X connect 33 1 50 1;
#X connect 34 0 35 0;
#X connect 34 1 51 1;
#X connect 35 0 51 0;
#X connect 52 0 53 0;
#X coords 0 -1 1 1 80 40 2 100 100;
#X restore 105 232 pd keyinput;
#X floatatom 283 338 5 0 0 0 - - -, f 5;
#X obj 283 362 /;
#X obj 283 310 bng 15 250 50 0 empty empty empty 17 7 0 10 -262144
-1 -1;
#X obj 105 171 + 1;
#X obj 479 319 line;
#X floatatom 479 341 5 0 0 0 - - -, f 5;
#X obj 461 267 bng 15 250 50 0 empty empty empty 17 7 0 10 -262144
-1 -1;
#X msg 479 298 0.37931 500;
#X obj 479 195 pack f 500;
#X obj 577 389 outlet~;
#X text 15 70 octave;
#X obj 190 82 inlet;
#X obj 236 82 inlet;
#X obj 277 82 inlet;
#X obj 318 82 inlet;
#X obj 370 121 vsl 20 30 0 0.5 0 1 empty empty empty 0 -9 0 10 -262144
-1 -1 2200 1;
#X obj 370 181 tgl 20 1 empty empty empty 17 7 0 10 -262144 -1 -1 1
1;
#X obj 436 169 *;
#X text 359 163 on/off;
#X obj 424 147 t b f;
#X obj 577 299 *~;
#X obj 173 -50 inlet;
#X text 344 100 D;
#X text 296 100 C;
#X text 246 100 B;
#X text 196 100 A;
#X text 148 100 Freq;
#N canvas 301 127 613 400 snd_F 0;
#X floatatom 77 103 5 0 0 0 - - -, f 5;
#X floatatom 101 162 5 0 0 0 - - -, f 5;
#X obj 101 229 *~;
#X obj 77 259 +~;
#X obj 101 139 * 2;
#X obj 258 306 line~;
#X obj 77 327 *~;
#X obj 136 205 line~;
#X obj 258 154 bng 15 250 50 0 empty empty empty 17 7 0 10 -262144
-1 -1;
#X obj 77 23 inlet;
#X obj 77 299 osc~;
#X obj 101 204 osc~;
#X obj 226 125 pack f f f f;
#X msg 155 183 \$2 \, \$3 \$4;
#X msg 308 273 0 1506.42;
#X obj 418 95 pack 0 f;
#X obj 418 71 bng 15 250 50 0 empty empty empty 17 7 0 10 -262144 -1
-1;
#X obj 328 84 /;
#X floatatom 328 106 5 0 0 0 - - -, f 5;
#X obj 317 62 bng 15 250 50 0 empty empty empty 17 7 0 10 -262144 -1
-1;
#X msg 259 273 0.5 1;
#X obj 283 249 del 5;
#X obj 418 116 list prepend;
#X obj 418 138 list trim;
#X obj 77 362 throw~ \$0-out_A;
#X obj 177 35 r \$0-para1_A;
#X obj 267 35 r \$0-para2_A;
#X obj 347 35 r \$0-para3_A;
#X obj 463 36 r \$0-Release_A;
#X connect 0 0 3 0;
#X connect 0 0 4 0;
#X connect 0 0 8 0;
#X connect 1 0 11 0;
#X connect 2 0 3 1;
#X connect 3 0 10 0;
#X connect 4 0 1 0;
#X connect 5 0 6 1;
#X connect 6 0 24 0;
#X connect 7 0 2 1;
#X connect 8 0 12 0;
#X connect 8 0 20 0;
#X connect 8 0 21 0;
#X connect 9 0 0 0;
#X connect 10 0 6 0;
#X connect 11 0 2 0;
#X connect 12 0 13 0;
#X connect 13 0 7 0;
#X connect 14 0 5 0;
#X connect 15 0 22 0;
#X connect 16 0 15 0;
#X connect 17 0 18 0;
#X connect 18 0 12 3;
#X connect 19 0 17 0;
#X connect 20 0 5 0;
#X connect 21 0 14 0;
#X connect 22 0 23 0;
#X connect 23 0 14 0;
#X connect 25 0 12 1;
#X connect 26 0 12 2;
#X connect 27 0 17 1;
#X connect 27 0 19 0;
#X connect 28 0 15 1;
#X connect 28 0 16 0;
#X connect 28 0 17 0;
#X restore 178 48 pd snd_F;
#X obj 479 239 list trim;
#X obj 31 214 s \$0-Oct_A;
#X obj 70 407 s \$0-para1_A;
#X obj 150 407 s \$0-para2_A;
#X obj 230 407 s \$0-para3_A;
#X obj 309 407 s \$0-Release_A;
#X obj 577 57 catch~ \$0-out_A;
#X msg 611 113 4;
#X obj 177 22 mtof;
#X obj 479 217 list prepend set;
#X obj 105 209 tgl 15 1 empty empty empty 17 7 0 10 -262144 -1 -1 1
1;
#X obj 306 13 loadbang;
#X obj 370 206 t b f;
#X connect 0 0 26 0;
#X connect 0 0 52 0;
#X connect 2 0 0 0;
#X connect 3 0 8 0;
#X connect 4 0 6 0;
#X connect 4 0 53 0;
#X connect 5 0 9 0;
#X connect 5 0 56 0;
#X connect 8 0 24 1;
#X connect 8 0 25 0;
#X connect 8 0 55 0;
#X connect 9 0 23 0;
#X connect 10 0 7 0;
#X connect 10 0 54 0;
#X connect 12 0 14 0;
#X connect 13 0 12 0;
#X connect 14 0 32 0;
#X connect 15 0 16 0;
#X connect 15 0 17 0;
#X connect 17 0 58 0;
#X connect 18 0 43 1;
#X connect 19 0 38 0;
#X connect 23 0 24 0;
#X connect 24 0 11 0;
#X connect 25 0 23 0;
#X connect 26 0 1 0;
#X connect 27 0 28 0;
#X connect 28 0 14 1;
#X connect 29 0 30 0;
#X connect 30 0 27 0;
#X connect 31 0 60 0;
#X connect 34 0 4 0;
#X connect 35 0 10 0;
#X connect 36 0 3 0;
#X connect 37 0 5 0;
#X connect 38 0 42 0;
#X connect 38 0 29 0;
#X connect 39 0 63 0;
#X connect 40 0 31 0;
#X connect 42 0 40 0;
#X connect 42 1 40 1;
#X connect 43 0 13 0;
#X connect 44 0 59 0;
#X connect 51 0 30 0;
#X connect 57 0 43 0;
#X connect 58 0 18 1;
#X connect 59 0 50 0;
#X connect 60 0 51 0;
#X connect 61 0 22 0;
#X connect 62 0 4 0;
#X connect 62 0 10 0;
#X connect 62 0 3 0;
#X connect 62 0 5 0;
#X connect 62 0 38 0;
#X connect 62 0 0 0;
#X connect 63 0 29 0;
#X connect 63 1 40 0;
#X coords 0 -1 1 1 300 180 2 100 100;
#X restore 25 35 pd set_octave;
#X obj 73 11 inlet;
#X obj 25 295 outlet~;
#X obj 24 233 /~ 16;
#X connect 0 0 3 0;
#X connect 1 0 0 1;
#X connect 3 0 2 0;
