#N canvas 863 551 1157 525 8;
#X obj 41 37 inlet;
#X obj 132 110 vsl 10 20 20 1 0 1 empty empty empty 0 -9 0 10 -204786
-1 -1 0 1;
#X obj 104 110 vsl 10 20 0 10000 0 1 empty empty empty 0 -9 0 10 -261234
-1 -1 388 1;
#X obj 146 110 vsl 10 20 10 4000 0 1 empty empty empty 0 -9 0 10 -204800
-1 -1 0 1;
#X floatatom 80 314 6 0 0 2 - - -;
#X floatatom 126 314 6 0 0 2 - - -;
#X floatatom 167 314 6 0 0 2 - - -;
#X floatatom 208 314 7 0 0 2 - - -;
#X obj 118 110 vsl 10 20 0 10000 0 1 empty empty empty 0 -9 0 10 -262130
-1 -1 0 1;
#X floatatom 208 414 6 0 0 2 - - -;
#X obj 513 315 hip~ 5;
#X obj 513 294 lop~ 2000;
#X obj 513 337 *~ 0.2;
#X obj 528 117 osc~;
#X obj 366 37 inlet;
#X text 364 22 volume;
#X text 295 73 volume;
#X floatatom 208 366 5 0 0 0 - - -;
#X obj 208 390 /;
#X obj 208 338 bng 15 250 50 0 empty empty empty 17 7 0 10 -262144
-1 -1;
#X obj 415 291 line;
#X floatatom 415 313 5 0 0 0 - - -;
#X obj 397 239 bng 15 250 50 0 empty empty empty 17 7 0 10 -262144
-1 -1;
#X msg 415 270 0.344828 500;
#X obj 415 167 pack f 500;
#X obj 513 381 outlet~;
#X obj 306 93 vsl 20 30 0 0.5 0 1 empty empty empty 0 -9 0 10 -262144
-1 -1 2000 1;
#X obj 306 153 tgl 20 1 empty empty empty 17 7 0 10 -262144 -1 -1 1
1;
#X obj 372 144 *;
#X text 295 135 on/off;
#X obj 372 126 t b f;
#X obj 513 271 *~;
#N canvas 301 127 613 400 snd_F 0;
#X floatatom 77 103 5 0 0 0 - - -;
#X floatatom 101 162 5 0 0 0 - - -;
#X obj 101 229 *~;
#X obj 77 259 +~;
#X obj 101 139 * 2;
#X obj 258 306 line~;
#X obj 77 327 *~;
#X obj 136 205 line~;
#X obj 258 154 bng 15 250 50 0 empty empty empty 17 7 0 10 -262144
-1 -1;
#X obj 77 23 inlet;
#X obj 77 299 osc~;
#X obj 101 204 osc~;
#X obj 226 125 pack f f f f;
#X msg 155 183 \$2 \, \$3 \$4;
#X msg 308 273 0 1506.42;
#X obj 418 95 pack 0 f;
#X obj 418 71 bng 15 250 50 0 empty empty empty 17 7 0 10 -262144 -1
-1;
#X obj 328 84 /;
#X floatatom 328 106 5 0 0 0 - - -;
#X obj 317 62 bng 15 250 50 0 empty empty empty 17 7 0 10 -262144 -1
-1;
#X msg 259 273 0.5 1;
#X obj 283 249 del 5;
#X obj 418 116 list prepend;
#X obj 418 138 list trim;
#X obj 77 362 throw~ \$0-out_A;
#X obj 177 35 r \$0-para1_A;
#X obj 267 35 r \$0-para2_A;
#X obj 347 35 r \$0-para3_A;
#X obj 463 36 r \$0-Release_A;
#X connect 0 0 3 0;
#X connect 0 0 4 0;
#X connect 0 0 8 0;
#X connect 1 0 11 0;
#X connect 2 0 3 1;
#X connect 3 0 10 0;
#X connect 4 0 1 0;
#X connect 5 0 6 1;
#X connect 6 0 24 0;
#X connect 7 0 2 1;
#X connect 8 0 12 0;
#X connect 8 0 20 0;
#X connect 8 0 21 0;
#X connect 9 0 0 0;
#X connect 10 0 6 0;
#X connect 11 0 2 0;
#X connect 12 0 13 0;
#X connect 13 0 7 0;
#X connect 14 0 5 0;
#X connect 15 0 22 0;
#X connect 16 0 15 0;
#X connect 17 0 18 0;
#X connect 18 0 12 3;
#X connect 19 0 17 0;
#X connect 20 0 5 0;
#X connect 21 0 14 0;
#X connect 22 0 23 0;
#X connect 23 0 14 0;
#X connect 25 0 12 1;
#X connect 26 0 12 2;
#X connect 27 0 17 1;
#X connect 27 0 19 0;
#X connect 28 0 15 1;
#X connect 28 0 16 0;
#X connect 28 0 17 0;
#X restore 41 83 pd snd_F;
#X obj 415 211 list trim;
#X obj 40 465 s \$0-para1_A;
#X obj 120 465 s \$0-para2_A;
#X obj 200 465 s \$0-para3_A;
#X obj 279 465 s \$0-Release_A;
#X obj 513 29 catch~ \$0-out_A;
#X msg 547 85 4;
#X obj 41 65 mtof;
#X obj 415 189 list prepend set;
#X obj 232 73 loadbang;
#X obj 306 178 t b f;
#X obj 776 26 inlet;
#X text 774 12 id;
#X floatatom 776 46 5 0 0 0 - - -;
#X obj 580 86 r para1_s;
#X obj 640 86 r para2_s;
#X obj 700 86 r para3_s;
#X obj 761 86 r para4_s;
#X obj 600 116 r para1_t;
#X obj 660 116 r para2_t;
#X obj 720 116 r para3_t;
#X obj 781 116 r para4_t;
#X floatatom 580 199 5 0 0 0 - - -;
#X obj 600 136 t b f;
#X obj 81 47 r \$0-para1;
#X obj 141 47 r \$0-para2;
#X obj 201 47 r \$0-para3;
#X obj 262 47 r \$0-para4;
#X obj 580 218 s \$0-para1;
#X floatatom 640 249 5 0 0 0 - - -;
#X obj 660 203 t b f;
#X obj 640 268 s \$0-para2;
#X floatatom 700 299 5 0 0 0 - - -;
#X obj 720 253 t b f;
#X floatatom 760 349 5 0 0 0 - - -;
#X obj 780 303 t b f;
#X obj 776 65 s \$0-id;
#X obj 725 153 r \$0-id;
#X obj 785 203 r \$0-id;
#X obj 845 253 r \$0-id;
#X obj 905 303 r \$0-id;
#X obj 760 368 s \$0-para4;
#X obj 700 318 s \$0-para3;
#X obj 580 179 expr $f1+($f2-$f1)*($f3/12.0) \;, f 31;
#X obj 640 229 expr $f1+($f2-$f1)*($f3/12.0) \;;
#X obj 700 279 expr $f1+($f2-$f1)*($f3/12.0) \;;
#X obj 760 329 expr $f1+($f2-$f1)*($f3/12.0) \;;
#X connect 0 0 40 0;
#X connect 1 0 6 0;
#X connect 2 0 4 0;
#X connect 2 0 34 0;
#X connect 3 0 7 0;
#X connect 3 0 37 0;
#X connect 6 0 18 1;
#X connect 6 0 19 0;
#X connect 6 0 36 0;
#X connect 7 0 17 0;
#X connect 8 0 5 0;
#X connect 8 0 35 0;
#X connect 10 0 12 0;
#X connect 11 0 10 0;
#X connect 12 0 25 0;
#X connect 13 0 31 1;
#X connect 14 0 26 0;
#X connect 17 0 18 0;
#X connect 18 0 9 0;
#X connect 19 0 17 0;
#X connect 20 0 21 0;
#X connect 21 0 12 1;
#X connect 22 0 23 0;
#X connect 23 0 20 0;
#X connect 24 0 41 0;
#X connect 26 0 30 0;
#X connect 26 0 22 0;
#X connect 27 0 43 0;
#X connect 28 0 24 0;
#X connect 30 0 28 0;
#X connect 30 1 28 1;
#X connect 31 0 11 0;
#X connect 33 0 23 0;
#X connect 38 0 31 0;
#X connect 39 0 13 1;
#X connect 40 0 32 0;
#X connect 41 0 33 0;
#X connect 42 0 2 0;
#X connect 42 0 8 0;
#X connect 42 0 1 0;
#X connect 42 0 3 0;
#X connect 42 0 26 0;
#X connect 43 0 22 0;
#X connect 43 1 28 0;
#X connect 44 0 46 0;
#X connect 46 0 69 0;
#X connect 47 0 76 0;
#X connect 48 0 77 0;
#X connect 49 0 78 0;
#X connect 50 0 79 0;
#X connect 51 0 56 0;
#X connect 52 0 63 0;
#X connect 53 0 66 0;
#X connect 54 0 68 0;
#X connect 55 0 61 0;
#X connect 56 0 76 0;
#X connect 56 1 76 1;
#X connect 57 0 2 0;
#X connect 58 0 8 0;
#X connect 59 0 1 0;
#X connect 60 0 3 0;
#X connect 62 0 64 0;
#X connect 63 0 77 0;
#X connect 63 1 77 1;
#X connect 65 0 75 0;
#X connect 66 0 78 0;
#X connect 66 1 78 1;
#X connect 67 0 74 0;
#X connect 68 0 79 0;
#X connect 68 1 79 1;
#X connect 70 0 76 2;
#X connect 71 0 77 2;
#X connect 72 0 78 2;
#X connect 73 0 79 2;
#X connect 76 0 55 0;
#X connect 77 0 62 0;
#X connect 78 0 65 0;
#X connect 79 0 67 0;
#X coords 0 -1 1 1 60 40 2 100 100;
