#N canvas 180 117 577 507 10;
#N canvas 220 113 762 578 set_octave 0;
#X obj 277 122 vsl 30 128 20 1 0 1 empty empty empty 0 -9 0 10 -220534
-1 -1 2700 1;
#X obj 190 122 vsl 30 128 0 10000 0 1 empty empty empty 0 -9 0 10 -259449
-1 -1 2500 1;
#X obj 318 122 vsl 30 128 10 2000 0 1 empty empty empty 0 -9 0 10 -52096
-1 -1 5400 1;
#X floatatom 190 256 6 0 0 2 - - -, f 6;
#X floatatom 236 256 6 0 0 2 - - -, f 6;
#X floatatom 277 256 6 0 0 2 - - -, f 6;
#X floatatom 318 256 7 0 0 2 - - -, f 7;
#X obj 236 122 vsl 30 128 0 10000 0 1 empty empty empty 0 -9 0 10 -220534
-1 -1 900 1;
#X floatatom 275 366 6 0 0 2 - - -, f 6;
#X obj 577 343 hip~ 5;
#X obj 577 322 lop~ 2000;
#X obj 577 365 *~ 0.2;
#X obj 592 145 osc~;
#X obj 406 11 inlet;
#X text 404 -4 volume;
#X text 359 101 volume;
#X floatatom 275 318 5 0 0 0 - - -, f 5;
#X obj 275 342 /;
#X obj 275 290 bng 15 250 50 0 empty empty empty 17 7 0 10 -262144
-1 -1;
#X obj 479 319 line;
#X floatatom 479 341 5 0 0 0 - - -, f 5;
#X obj 461 267 bng 15 250 50 0 empty empty empty 17 7 0 10 -262144
-1 -1;
#X msg 479 298 0.344828 500;
#X obj 479 195 pack f 500;
#X obj 577 389 outlet~;
#X obj 190 82 inlet;
#X obj 236 82 inlet;
#X obj 277 82 inlet;
#X obj 318 82 inlet;
#X obj 370 121 vsl 20 30 0 0.5 0 1 empty empty empty 0 -9 0 10 -262144
-1 -1 2000 1;
#X obj 370 181 tgl 20 1 empty empty empty 17 7 0 10 -262144 -1 -1 1
1;
#X obj 436 169 *;
#X text 359 163 on/off;
#X obj 424 147 t b f;
#X obj 577 299 *~;
#X obj 101 3 inlet;
#X text 344 100 D;
#X text 296 100 C;
#X text 246 100 B;
#X text 196 100 A;
#N canvas 301 127 613 400 snd_F 0;
#X floatatom 77 103 5 0 0 0 - - -, f 5;
#X floatatom 101 162 5 0 0 0 - - -, f 5;
#X obj 101 229 *~;
#X obj 77 259 +~;
#X obj 101 139 * 2;
#X obj 258 306 line~;
#X obj 77 327 *~;
#X obj 136 205 line~;
#X obj 258 154 bng 15 250 50 0 empty empty empty 17 7 0 10 -262144
-1 -1;
#X obj 77 23 inlet;
#X obj 77 299 osc~;
#X obj 101 204 osc~;
#X obj 226 125 pack f f f f;
#X msg 155 183 \$2 \, \$3 \$4;
#X msg 308 273 0 1506.42;
#X obj 418 95 pack 0 f;
#X obj 418 71 bng 15 250 50 0 empty empty empty 17 7 0 10 -262144 -1
-1;
#X obj 328 84 /;
#X floatatom 328 106 5 0 0 0 - - -, f 5;
#X obj 317 62 bng 15 250 50 0 empty empty empty 17 7 0 10 -262144 -1
-1;
#X msg 259 273 0.5 1;
#X obj 283 249 del 5;
#X obj 418 116 list prepend;
#X obj 418 138 list trim;
#X obj 77 362 throw~ \$0-out_A;
#X obj 177 35 r \$0-para1_A;
#X obj 267 35 r \$0-para2_A;
#X obj 347 35 r \$0-para3_A;
#X obj 463 36 r \$0-Release_A;
#X connect 0 0 3 0;
#X connect 0 0 4 0;
#X connect 0 0 8 0;
#X connect 1 0 11 0;
#X connect 2 0 3 1;
#X connect 3 0 10 0;
#X connect 4 0 1 0;
#X connect 5 0 6 1;
#X connect 6 0 24 0;
#X connect 7 0 2 1;
#X connect 8 0 12 0;
#X connect 8 0 20 0;
#X connect 8 0 21 0;
#X connect 9 0 0 0;
#X connect 10 0 6 0;
#X connect 11 0 2 0;
#X connect 12 0 13 0;
#X connect 13 0 7 0;
#X connect 14 0 5 0;
#X connect 15 0 22 0;
#X connect 16 0 15 0;
#X connect 17 0 18 0;
#X connect 18 0 12 3;
#X connect 19 0 17 0;
#X connect 20 0 5 0;
#X connect 21 0 14 0;
#X connect 22 0 23 0;
#X connect 23 0 14 0;
#X connect 25 0 12 1;
#X connect 26 0 12 2;
#X connect 27 0 17 1;
#X connect 27 0 19 0;
#X connect 28 0 15 1;
#X connect 28 0 16 0;
#X connect 28 0 17 0;
#X restore 101 80 pd snd_F;
#X obj 479 239 list trim;
#X obj 70 407 s \$0-para1_A;
#X obj 150 407 s \$0-para2_A;
#X obj 230 407 s \$0-para3_A;
#X obj 309 407 s \$0-Release_A;
#X obj 577 57 catch~ \$0-out_A;
#X msg 611 113 4;
#X obj 101 42 mtof;
#X obj 479 217 list prepend set;
#X obj 306 13 loadbang;
#X obj 370 206 t b f;
#X connect 0 0 5 0;
#X connect 1 0 3 0;
#X connect 1 0 42 0;
#X connect 2 0 6 0;
#X connect 2 0 45 0;
#X connect 5 0 17 1;
#X connect 5 0 18 0;
#X connect 5 0 44 0;
#X connect 6 0 16 0;
#X connect 7 0 4 0;
#X connect 7 0 43 0;
#X connect 9 0 11 0;
#X connect 10 0 9 0;
#X connect 11 0 24 0;
#X connect 12 0 34 1;
#X connect 13 0 29 0;
#X connect 16 0 17 0;
#X connect 17 0 8 0;
#X connect 18 0 16 0;
#X connect 19 0 20 0;
#X connect 20 0 11 1;
#X connect 21 0 22 0;
#X connect 22 0 19 0;
#X connect 23 0 49 0;
#X connect 25 0 1 0;
#X connect 26 0 7 0;
#X connect 27 0 0 0;
#X connect 28 0 2 0;
#X connect 29 0 33 0;
#X connect 29 0 21 0;
#X connect 30 0 51 0;
#X connect 31 0 23 0;
#X connect 33 0 31 0;
#X connect 33 1 31 1;
#X connect 34 0 10 0;
#X connect 35 0 48 0;
#X connect 41 0 22 0;
#X connect 46 0 34 0;
#X connect 47 0 12 1;
#X connect 48 0 40 0;
#X connect 49 0 41 0;
#X connect 50 0 1 0;
#X connect 50 0 7 0;
#X connect 50 0 0 0;
#X connect 50 0 2 0;
#X connect 50 0 29 0;
#X connect 51 0 21 0;
#X connect 51 1 31 0;
#X coords 0 -1 1 1 300 180 2 100 100;
#X restore 25 35 pd set_octave;
#X obj 25 295 outlet~;
#X obj 25 11 inlet;
#X obj 24 233 /~ 10;
#X obj 85 11 r para1;
#X obj 155 11 r para2;
#X obj 225 11 r para3;
#X obj 296 11 r para4;
#X connect 0 0 3 0;
#X connect 2 0 0 0;
#X connect 3 0 1 0;
#X connect 4 0 0 1;
#X connect 5 0 0 2;
#X connect 6 0 0 3;
#X connect 7 0 0 4;
